<svg width="16" height="18" viewBox="0 0 16 18" fill="none" xmlns="http://www.w3.org/2000/svg">
<path fill-rule="evenodd" clip-rule="evenodd" d="M7.8997 5.90234C6.93507 5.90234 6.15308 6.68433 6.15308 7.64897C6.15308 8.6136 6.93507 9.39559 7.8997 9.39559C8.86433 9.39559 9.64632 8.6136 9.64632 7.64897C9.64632 6.68433 8.86433 5.90234 7.8997 5.90234ZM4.65308 7.64897C4.65308 5.85591 6.10664 4.40234 7.8997 4.40234C9.69276 4.40234 11.1463 5.85591 11.1463 7.64897C11.1463 9.44203 9.69276 10.8956 7.8997 10.8956C6.10664 10.8956 4.65308 9.44203 4.65308 7.64897Z" fill="#11142E"/>
<path fill-rule="evenodd" clip-rule="evenodd" d="M7.90243 1.75C5.22466 1.74819 2.62202 3.2988 1.92565 6.35935C1.09849 10.0143 3.36051 13.203 5.53102 15.2951C6.85791 16.5691 8.94281 16.5672 10.2598 15.2961L10.2612 15.2947C12.4397 13.2028 14.7015 10.0217 13.8741 6.36689L13.8741 6.36686C13.1814 3.30614 10.5804 1.75181 7.90243 1.75ZM15.3371 6.03571C14.4614 2.16672 11.145 0.252193 7.90344 0.250002C4.66182 0.247811 1.34307 2.15796 0.462942 6.02694L0.462767 6.02771C-0.550165 10.5022 2.24445 14.2108 4.49076 16.3757L4.4917 16.3766C6.39743 18.2069 9.40115 18.2089 11.3009 16.3759C13.5554 14.2108 16.3501 10.5104 15.3371 6.03571Z" fill="#11142E"/>
</svg>
