<svg width="18" height="18" viewBox="0 0 18 18" fill="none" xmlns="http://www.w3.org/2000/svg">
<path fill-rule="evenodd" clip-rule="evenodd" d="M9 1.75C4.99821 1.75 1.75 4.99821 1.75 9C1.75 13.0018 4.99821 16.25 9 16.25C13.0018 16.25 16.25 13.0018 16.25 9C16.25 4.99821 13.0018 1.75 9 1.75ZM0.25 9C0.25 4.16979 4.16979 0.25 9 0.25C13.8302 0.25 17.75 4.16979 17.75 9C17.75 13.8302 13.8302 17.75 9 17.75C4.16979 17.75 0.25 13.8302 0.25 9Z" fill="#11142E"/>
<path fill-rule="evenodd" clip-rule="evenodd" d="M8.7041 4.6582C9.11832 4.6582 9.4541 4.99399 9.4541 5.4082V8.6882C9.4541 8.77875 9.49074 8.9313 9.58561 9.09766C9.6805 9.26407 9.7931 9.37315 9.87045 9.41898L9.87245 9.42017L9.87244 9.42017L12.3524 10.9002C12.7081 11.1124 12.8244 11.5729 12.6121 11.9285C12.3999 12.2842 11.9394 12.4005 11.5838 12.1882L9.10575 10.7094C9.10535 10.7092 9.10494 10.7089 9.10454 10.7087C8.75047 10.4985 8.47148 10.172 8.2826 9.84074C8.09347 9.5091 7.9541 9.10166 7.9541 8.6882V5.4082C7.9541 4.99399 8.28989 4.6582 8.7041 4.6582Z" fill="#11142E"/>
</svg>
