<svg width="40" height="40" viewBox="0 0 40 40" fill="none" xmlns="http://www.w3.org/2000/svg">
<rect width="40" height="40" rx="6" fill="#FAFAFA"/>
<g clip-path="url(#clip0_10241_68)">
<path d="M10.525 23.5023C10.5303 23.5693 10.5571 23.6328 10.6014 23.6833C10.6456 23.7339 10.705 23.7688 10.7706 23.783L11.8597 24.018C11.8981 24.2036 11.9469 24.3867 12.0059 24.5655L11.1816 25.3123C11.1318 25.3575 11.0979 25.4174 11.0849 25.4834C11.0719 25.5493 11.0805 25.6176 11.1094 25.6783C11.252 25.9813 11.4188 26.2723 11.6081 26.5486C11.6463 26.6038 11.7012 26.6452 11.7647 26.6668C11.8283 26.6883 11.8971 26.6889 11.9609 26.6683L13.0194 26.3273C13.1459 26.4692 13.2806 26.6039 13.4225 26.7305L13.0816 27.7889C13.061 27.8528 13.0615 27.9216 13.0831 27.9851C13.1046 28.0486 13.1461 28.1036 13.2013 28.1417C13.4775 28.331 13.7686 28.4978 14.0716 28.6405C14.1322 28.6694 14.2006 28.678 14.2665 28.665C14.3324 28.652 14.3924 28.6181 14.4375 28.5683L15.1844 27.7439C15.3634 27.8027 15.5466 27.8517 15.7322 27.8902L15.9672 28.9792C15.9963 29.1139 16.1103 29.2136 16.2475 29.2248C16.4138 29.238 16.5803 29.2498 16.75 29.2498C16.9197 29.2498 17.0862 29.238 17.2525 29.2248C17.3195 29.2195 17.3829 29.1927 17.4335 29.1485C17.484 29.1042 17.519 29.0449 17.5331 28.9792L17.7681 27.8902C17.9534 27.8519 18.1363 27.8031 18.3159 27.7439L19.0628 28.5683C19.1079 28.6181 19.1679 28.652 19.2338 28.665C19.2997 28.678 19.3681 28.6694 19.4288 28.6405C19.7317 28.4977 20.0227 28.3309 20.2991 28.1417C20.3542 28.1036 20.3957 28.0486 20.4172 27.9851C20.4388 27.9216 20.4393 27.8528 20.4188 27.7889L20.0778 26.7305C20.2197 26.6039 20.3544 26.4692 20.4809 26.3277L21.5394 26.6686C21.6032 26.6892 21.672 26.6887 21.7356 26.6671C21.7991 26.6456 21.8541 26.6041 21.8922 26.5489C22.0815 26.2726 22.2483 25.9816 22.3909 25.6786C22.4198 25.6179 22.4284 25.5496 22.4154 25.4837C22.4024 25.4178 22.3685 25.3578 22.3188 25.3127L21.4944 24.5658C21.5531 24.3867 21.6022 24.2036 21.6406 24.018L22.7297 23.783C22.8644 23.7539 22.9641 23.6398 22.9753 23.5027C22.9881 23.3361 23 23.1695 23 22.9998C23 22.8302 22.9881 22.6636 22.975 22.4973C22.9697 22.4304 22.9429 22.3669 22.8986 22.3164C22.8544 22.2658 22.795 22.2309 22.7294 22.2167L21.6403 21.9817C21.6021 21.7965 21.5533 21.6136 21.4941 21.4339L22.3184 20.687C22.3682 20.6419 22.4021 20.5819 22.4151 20.516C22.4281 20.4501 22.4195 20.3817 22.3906 20.3211C22.2478 20.0182 22.0811 19.7271 21.8919 19.4508C21.8537 19.3956 21.7988 19.3541 21.7353 19.3325C21.6717 19.311 21.6029 19.3105 21.5391 19.3311L20.4806 19.672C20.354 19.5301 20.2194 19.3955 20.0775 19.2689L20.4184 18.2105C20.439 18.1466 20.4385 18.0778 20.4169 18.0143C20.3954 17.9507 20.3539 17.8958 20.2987 17.8577C20.0225 17.6684 19.7314 17.5016 19.4284 17.3589C19.3678 17.3299 19.2994 17.3213 19.2335 17.3343C19.1675 17.3473 19.1076 17.3812 19.0625 17.4311L18.3156 18.2555C18.1359 18.1965 17.953 18.1476 17.7678 18.1092L17.5328 17.0202C17.5186 16.9546 17.4837 16.8953 17.4332 16.851C17.3828 16.8068 17.3194 16.78 17.2525 16.7745C16.9179 16.748 16.5818 16.748 16.2472 16.7745C16.1802 16.7799 16.1168 16.8067 16.0662 16.8509C16.0157 16.8951 15.9807 16.9545 15.9666 17.0202L15.7316 18.1092C15.5459 18.1477 15.3628 18.1964 15.1841 18.2555L14.4372 17.4311C14.3921 17.3813 14.3321 17.3474 14.2662 17.3344C14.2003 17.3214 14.1319 17.33 14.0713 17.3589C13.7682 17.5016 13.4772 17.6684 13.2009 17.8577C13.1458 17.8958 13.1043 17.9507 13.0828 18.0143C13.0612 18.0778 13.0607 18.1466 13.0813 18.2105L13.4222 19.2689C13.2803 19.3955 13.1456 19.5302 13.0191 19.672L11.9609 19.3311C11.8971 19.3104 11.8283 19.3109 11.7647 19.3325C11.7011 19.354 11.6462 19.3955 11.6081 19.4508C11.4188 19.7271 11.252 20.0181 11.1094 20.3211C11.0805 20.3817 11.0719 20.4501 11.0849 20.516C11.0979 20.5819 11.1318 20.6419 11.1816 20.687L12.0059 21.4339C11.9469 21.6136 11.8981 21.7965 11.8597 21.9817L10.7706 22.2167C10.6359 22.2458 10.5362 22.3598 10.525 22.497C10.5119 22.6636 10.5 22.8302 10.5 22.9998C10.5 23.1695 10.5119 23.3361 10.525 23.5023ZM11.1316 22.7783L12.1947 22.5486C12.2561 22.5353 12.3121 22.5039 12.3553 22.4583C12.3986 22.4128 12.4271 22.3553 12.4372 22.2933C12.4841 22.0052 12.5597 21.7223 12.6619 21.4523C12.6841 21.3936 12.6882 21.3296 12.6734 21.2685C12.6587 21.2075 12.6259 21.1523 12.5794 21.1102L11.7766 20.3827C11.8466 20.2486 11.9197 20.1202 11.9953 19.9986L13.0253 20.3305C13.1472 20.3695 13.2816 20.3305 13.3631 20.2311C13.5481 20.005 13.7552 19.798 13.9813 19.613C14.0806 19.5317 14.1203 19.3977 14.0806 19.2752L13.7487 18.2452C13.8703 18.1692 13.9984 18.0961 14.1328 18.0264L14.8603 18.8295C14.9469 18.9248 15.0831 18.9577 15.2028 18.912C15.4748 18.8091 15.7564 18.7339 16.0434 18.6873C16.1054 18.6773 16.163 18.6487 16.2085 18.6055C16.254 18.5622 16.2855 18.5062 16.2987 18.4448L16.5281 17.3817C16.6753 17.3739 16.825 17.3736 16.9716 17.3817L17.2013 18.4448C17.2145 18.5062 17.246 18.5622 17.2915 18.6055C17.337 18.6487 17.3946 18.6773 17.4566 18.6873C17.7447 18.7342 18.0275 18.8098 18.2975 18.912C18.3562 18.9343 18.4203 18.9384 18.4813 18.9237C18.5424 18.909 18.5976 18.8761 18.6397 18.8295L19.3672 18.0267C19.5013 18.0967 19.6297 18.1698 19.7513 18.2455L19.4194 19.2755C19.38 19.398 19.4194 19.5317 19.5188 19.6133C19.7448 19.7983 19.9519 20.0053 20.1369 20.2314C20.1766 20.2801 20.2301 20.3157 20.2904 20.3335C20.3507 20.3512 20.4149 20.3503 20.4747 20.3308L21.5047 19.9989C21.5806 20.1205 21.6538 20.2486 21.7234 20.3827L20.9203 21.1102C20.8737 21.1523 20.8409 21.2076 20.8262 21.2687C20.8115 21.3298 20.8155 21.3939 20.8378 21.4527C20.94 21.722 21.0156 22.0048 21.0625 22.2933C21.0726 22.3553 21.1011 22.4128 21.1444 22.4583C21.1876 22.5039 21.2436 22.5353 21.305 22.5486L22.3681 22.778C22.3722 22.8514 22.375 22.9255 22.375 22.9998C22.375 23.0742 22.3725 23.1483 22.3684 23.2214L21.3053 23.4511C21.2439 23.4644 21.1879 23.4958 21.1447 23.5413C21.1014 23.5869 21.0729 23.6444 21.0628 23.7064C21.0162 23.9935 20.9409 24.2752 20.8381 24.5473C20.8159 24.6061 20.8118 24.6701 20.8266 24.7312C20.8413 24.7922 20.8741 24.8474 20.9206 24.8895L21.7234 25.617C21.6534 25.7511 21.5803 25.8795 21.5047 26.0011L20.4747 25.6692C20.4149 25.6497 20.3507 25.6487 20.2904 25.6665C20.2301 25.6842 20.1765 25.7198 20.1369 25.7686C19.9518 25.9946 19.7448 26.2017 19.5188 26.3867C19.4194 26.468 19.38 26.602 19.4194 26.7242L19.7513 27.7542C19.6297 27.8302 19.5016 27.9033 19.3675 27.973L18.64 27.1698C18.5977 27.1234 18.5425 27.0907 18.4814 27.076C18.4204 27.0613 18.3563 27.0652 18.2975 27.0873C18.0281 27.1895 17.7453 27.2652 17.4569 27.312C17.3949 27.3221 17.3374 27.3506 17.2918 27.3939C17.2463 27.4372 17.2148 27.4931 17.2016 27.5545L16.9722 28.6177C16.825 28.6255 16.6753 28.6258 16.5287 28.6177L16.2991 27.5545C16.2858 27.4931 16.2544 27.4372 16.2088 27.3939C16.1633 27.3506 16.1057 27.3221 16.0437 27.312C15.7566 27.2654 15.4749 27.1901 15.2028 27.0873C15.1441 27.065 15.08 27.061 15.019 27.0757C14.9579 27.0904 14.9027 27.1232 14.8606 27.1698L14.1331 27.9727C14.0024 27.9046 13.8743 27.8316 13.7491 27.7539L14.0809 26.7239C14.1203 26.6014 14.0809 26.4677 13.9816 26.3861C13.7555 26.2011 13.5484 25.994 13.3634 25.768C13.3237 25.7193 13.2701 25.6838 13.2099 25.6661C13.1496 25.6484 13.0854 25.6492 13.0256 25.6686L11.9956 26.0005C11.9176 25.8754 11.8446 25.7473 11.7769 25.6164L12.58 24.8889C12.6266 24.8467 12.6594 24.7915 12.6741 24.7304C12.6888 24.6693 12.6848 24.6052 12.6625 24.5464C12.5596 24.2744 12.4843 23.9928 12.4378 23.7058C12.4277 23.6438 12.3992 23.5863 12.3559 23.5407C12.3127 23.4952 12.2567 23.4637 12.1953 23.4505L11.1316 23.2217C11.1278 23.1483 11.125 23.0742 11.125 22.9998C11.125 22.9255 11.1275 22.8514 11.1316 22.7783ZM26.8184 14.9483C26.876 14.9302 26.9271 14.8958 26.9655 14.8492C27.0039 14.8027 27.0281 14.746 27.035 14.6861C27.0537 14.5283 27.0625 14.3855 27.0625 14.2498C27.0625 14.1142 27.0537 13.9714 27.0353 13.8136C27.0284 13.7536 27.0042 13.697 26.9658 13.6505C26.9274 13.6039 26.8763 13.5695 26.8188 13.5514L25.9522 13.2792C25.9263 13.2085 25.8976 13.1388 25.8659 13.0705L26.2859 12.2658C26.3138 12.2123 26.3256 12.1519 26.3199 12.0919C26.3143 12.0318 26.2914 11.9747 26.2541 11.9273C26.0725 11.698 25.865 11.4905 25.6356 11.3089C25.5883 11.2715 25.5312 11.2486 25.4712 11.2429C25.4111 11.2372 25.3507 11.2489 25.2972 11.2767L24.4919 11.6967C24.4235 11.6653 24.3538 11.6367 24.2831 11.6108L24.0109 10.7442C23.9928 10.6867 23.9584 10.6356 23.9119 10.5972C23.8654 10.5587 23.8087 10.5346 23.7487 10.5277C23.459 10.4908 23.1657 10.4908 22.8759 10.5277C22.816 10.5346 22.7593 10.5587 22.7128 10.5972C22.6663 10.6356 22.6319 10.6867 22.6138 10.7442L22.3416 11.6108C22.2706 11.6367 22.2009 11.6655 22.1328 11.697L21.3281 11.277C21.2746 11.2493 21.2142 11.2375 21.1542 11.2432C21.0942 11.2488 21.0371 11.2716 20.9897 11.3089C20.7603 11.4905 20.5528 11.698 20.3713 11.9273C20.3338 11.9746 20.3108 12.0317 20.3051 12.0918C20.2994 12.1519 20.3112 12.2123 20.3391 12.2658L20.7587 13.0705C20.7275 13.1386 20.6988 13.2083 20.6728 13.2792L19.8063 13.5514C19.7487 13.5695 19.6976 13.6039 19.6592 13.6505C19.6208 13.697 19.5966 13.7536 19.5897 13.8136C19.5712 13.9714 19.5625 14.1142 19.5625 14.2498C19.5625 14.3855 19.5712 14.5283 19.5897 14.6861C19.5966 14.746 19.6208 14.8027 19.6592 14.8492C19.6976 14.8958 19.7487 14.9302 19.8063 14.9483L20.6728 15.2205C20.6988 15.2914 20.7275 15.3611 20.7591 15.4292L20.3391 16.2339C20.2822 16.343 20.2947 16.4755 20.3709 16.5723C20.5525 16.8017 20.76 17.0092 20.9894 17.1908C21.0859 17.2673 21.2187 17.2795 21.3278 17.223L22.1325 16.8033C22.2006 16.8345 22.2703 16.8633 22.3412 16.8892L22.6134 17.7558C22.6316 17.8133 22.666 17.8644 22.7125 17.9028C22.759 17.9413 22.8157 17.9654 22.8756 17.9723C23.0341 17.9911 23.1769 17.9998 23.3125 17.9998C23.4481 17.9998 23.5909 17.9911 23.7487 17.9727C23.8087 17.9657 23.8654 17.9416 23.9119 17.9032C23.9584 17.8647 23.9928 17.8137 24.0109 17.7561L24.2831 16.8895C24.3541 16.8636 24.4237 16.8348 24.4919 16.8033L25.2966 17.2233C25.35 17.2512 25.4104 17.263 25.4705 17.2574C25.5305 17.2517 25.5877 17.2288 25.635 17.1914C25.8644 17.0099 26.0719 16.8023 26.2534 16.573C26.2909 16.5257 26.3139 16.4686 26.3196 16.4085C26.3253 16.3485 26.3135 16.288 26.2856 16.2345L25.8656 15.4298C25.8972 15.3617 25.9259 15.292 25.9519 15.2211L26.8184 14.9483ZM25.6122 14.672C25.5134 14.7033 25.4366 14.7811 25.4066 14.8805C25.3645 15.0205 25.3086 15.1559 25.2397 15.2848C25.2155 15.3297 25.2026 15.3799 25.2023 15.4309C25.202 15.4819 25.2142 15.5322 25.2378 15.5773L25.6344 16.3373C25.5603 16.4195 25.4819 16.498 25.4 16.5717L24.64 16.1752C24.5948 16.1516 24.5445 16.1394 24.4935 16.1398C24.4425 16.1401 24.3924 16.1529 24.3475 16.177C24.2186 16.2459 24.0831 16.3018 23.9431 16.3439C23.8943 16.3586 23.8497 16.3851 23.8134 16.4209C23.7771 16.4567 23.7501 16.5009 23.7347 16.5495L23.4772 17.3695C23.3675 17.3764 23.2575 17.3764 23.1478 17.3695L22.8903 16.5495C22.8749 16.5009 22.8479 16.4567 22.8116 16.4209C22.7753 16.3851 22.7307 16.3586 22.6819 16.3439C22.5419 16.302 22.4065 16.2461 22.2778 16.177C22.2329 16.1528 22.1827 16.14 22.1316 16.1397C22.0806 16.1393 22.0302 16.1515 21.985 16.1752L21.225 16.5717C21.1429 16.4977 21.0646 16.4195 20.9906 16.3373L21.3872 15.5773C21.4108 15.5321 21.4229 15.4818 21.4226 15.4309C21.4223 15.3799 21.4095 15.3297 21.3853 15.2848C21.3164 15.1559 21.2605 15.0205 21.2184 14.8805C21.2037 14.8316 21.1773 14.7871 21.1415 14.7508C21.1056 14.7144 21.0615 14.6874 21.0128 14.672L20.1928 14.4145C20.1856 14.3049 20.1856 14.1948 20.1928 14.0852L21.0128 13.8277C21.1116 13.7964 21.1884 13.7186 21.2184 13.6192C21.2609 13.4777 21.3172 13.3417 21.3853 13.2152C21.4095 13.1702 21.4223 13.12 21.4227 13.069C21.423 13.0179 21.4108 12.9676 21.3872 12.9223L20.9906 12.1623C21.0647 12.0802 21.1431 12.0017 21.225 11.928L21.985 12.3245C22.0766 12.3723 22.1866 12.3714 22.2775 12.3227C22.4064 12.2537 22.5419 12.1978 22.6819 12.1558C22.7809 12.1261 22.8591 12.0489 22.8903 11.9502L23.1478 11.1302C23.2575 11.1233 23.3675 11.1233 23.4772 11.1302L23.7347 11.9502C23.7659 12.0489 23.8438 12.1258 23.9431 12.1558C24.0847 12.1983 24.2206 12.2545 24.3472 12.3227C24.3921 12.3469 24.4423 12.3597 24.4934 12.36C24.5444 12.3603 24.5948 12.3482 24.64 12.3245L25.4 11.928C25.4822 12.002 25.5606 12.0805 25.6344 12.1623L25.2378 12.9223C25.2142 12.9676 25.2021 13.0178 25.2024 13.0688C25.2027 13.1198 25.2155 13.1699 25.2397 13.2148C25.3078 13.342 25.3641 13.478 25.4066 13.6192C25.4362 13.7183 25.5134 13.7964 25.6122 13.8277L26.4322 14.0852C26.4394 14.1948 26.4394 14.3049 26.4322 14.4145L25.6122 14.672ZM29.0194 20.8011L28.4825 20.6105C28.4521 20.5235 28.4169 20.4383 28.3772 20.3552L28.6213 19.8411C28.6462 19.7887 28.656 19.7304 28.6496 19.6728C28.6432 19.6152 28.6208 19.5604 28.585 19.5148C28.4283 19.3146 28.2479 19.1341 28.0478 18.9773C28.0021 18.9416 27.9474 18.9192 27.8897 18.9128C27.832 18.9064 27.7737 18.9162 27.7213 18.9411L27.2069 19.1852C27.1239 19.1455 27.0387 19.1104 26.9519 19.0802L26.7609 18.5433C26.7414 18.4885 26.7071 18.4403 26.6617 18.404C26.6163 18.3677 26.5617 18.3447 26.5041 18.3377C26.2524 18.3042 25.9973 18.3042 25.7456 18.3377C25.6879 18.3446 25.6333 18.3676 25.5879 18.4039C25.5425 18.4402 25.5082 18.4885 25.4888 18.5433L25.2981 19.0802C25.2109 19.1108 25.1256 19.1458 25.0428 19.1855L24.5287 18.9414C24.4764 18.9166 24.4181 18.9068 24.3605 18.9132C24.3029 18.9196 24.2482 18.9419 24.2025 18.9777C24.0028 19.1339 23.8219 19.3145 23.665 19.5148C23.6293 19.5606 23.607 19.6153 23.6006 19.673C23.5942 19.7307 23.6039 19.789 23.6287 19.8414L23.8728 20.3558C23.8331 20.4388 23.7981 20.5239 23.7678 20.6108L23.2309 20.8017C23.1762 20.8212 23.128 20.8556 23.0917 20.901C23.0553 20.9463 23.0324 21.0009 23.0253 21.0586C23.0081 21.197 23 21.3211 23 21.4373C23 21.5536 23.0081 21.6773 23.025 21.8164C23.0391 21.9339 23.1187 22.0336 23.2306 22.0733L23.7675 22.2639C23.7981 22.3511 23.8331 22.4364 23.8728 22.5192L23.6287 23.0333C23.6038 23.0856 23.594 23.1439 23.6004 23.2016C23.6068 23.2592 23.6292 23.3139 23.665 23.3595C23.8212 23.5592 24.0019 23.7402 24.2022 23.897C24.2953 23.9698 24.4222 23.9839 24.5287 23.9333L25.0431 23.6892C25.1256 23.7286 25.2109 23.7639 25.2981 23.7942L25.4891 24.3311C25.5288 24.4427 25.6284 24.5223 25.7459 24.5367C25.885 24.5542 26.0087 24.5623 26.125 24.5623C26.2413 24.5623 26.365 24.5542 26.5041 24.5373C26.5618 24.5304 26.6164 24.5075 26.6618 24.4711C26.7072 24.4348 26.7415 24.3865 26.7609 24.3317L26.9516 23.7948C27.0387 23.7642 27.1241 23.7292 27.2069 23.6895L27.7209 23.9336C27.7733 23.9586 27.8316 23.9685 27.8892 23.9621C27.9469 23.9557 28.0016 23.9333 28.0472 23.8973C28.2469 23.7411 28.4278 23.5605 28.5847 23.3602C28.6575 23.267 28.6716 23.1405 28.6209 23.0336L28.3769 22.5192C28.4163 22.4367 28.4516 22.3514 28.4819 22.2642L29.0187 22.0733C29.1303 22.0336 29.21 21.9339 29.2244 21.8164C29.2419 21.6773 29.25 21.5536 29.25 21.4373C29.25 21.3211 29.2419 21.1973 29.225 21.0583C29.2181 21.0005 29.1951 20.9458 29.1588 20.9004C29.1225 20.855 29.0742 20.8206 29.0194 20.8011ZM28.6219 21.5514L28.1266 21.7273C28.0793 21.7441 28.0367 21.7721 28.0025 21.8088C27.9683 21.8455 27.9434 21.8899 27.93 21.9383C27.8896 22.0852 27.8314 22.2265 27.7566 22.3592C27.7066 22.4477 27.7028 22.5552 27.7463 22.647L27.9706 23.1198C27.9187 23.1767 27.8644 23.2311 27.8078 23.2827L27.335 23.0583C27.2897 23.0369 27.2399 23.0266 27.1898 23.0284C27.1398 23.0302 27.0908 23.044 27.0472 23.0686C26.9159 23.143 26.7744 23.2011 26.6266 23.242C26.5782 23.2555 26.5338 23.2804 26.497 23.3146C26.4602 23.3488 26.4322 23.3913 26.4153 23.4386L26.2394 23.9339C26.1634 23.938 26.0872 23.938 26.0113 23.9339L25.8353 23.4386C25.8185 23.3913 25.7906 23.3487 25.7539 23.3145C25.7172 23.2803 25.6727 23.2555 25.6244 23.242C25.4775 23.2017 25.3361 23.1434 25.2034 23.0686C25.1597 23.0441 25.1108 23.0304 25.0608 23.0286C25.0107 23.0268 24.961 23.037 24.9156 23.0583L24.4428 23.2827C24.3861 23.2309 24.3317 23.1766 24.28 23.1198L24.5044 22.647C24.5259 22.6017 24.5361 22.552 24.5343 22.5019C24.5326 22.4518 24.5187 22.4029 24.4941 22.3592C24.4193 22.2266 24.361 22.0854 24.3206 21.9386C24.3072 21.8902 24.2823 21.8458 24.2481 21.809C24.2139 21.7723 24.1713 21.7443 24.1241 21.7273L23.6287 21.5514C23.6235 21.4755 23.6233 21.3993 23.6281 21.3233L24.1234 21.147C24.1707 21.1303 24.2133 21.1024 24.2474 21.0656C24.2816 21.0289 24.3064 20.9845 24.3197 20.9361C24.3602 20.7892 24.4186 20.6479 24.4934 20.5152C24.5434 20.4267 24.5472 20.3192 24.5037 20.2273L24.2794 19.7545C24.3313 19.6977 24.3856 19.6433 24.4422 19.5917L24.915 19.8161C25.0069 19.8598 25.1144 19.8561 25.2028 19.8058C25.3341 19.7314 25.4756 19.6733 25.6234 19.6323C25.7216 19.6052 25.8003 19.5317 25.8347 19.4358L26.0106 18.9405C26.0862 18.9364 26.1631 18.9364 26.2387 18.9405L26.4147 19.4358C26.4315 19.4831 26.4594 19.5256 26.4961 19.5598C26.5328 19.5941 26.5773 19.6189 26.6256 19.6323C26.7725 19.6727 26.9139 19.7309 27.0466 19.8058C27.0902 19.8305 27.1391 19.8444 27.1892 19.8462C27.2393 19.848 27.2891 19.8377 27.3344 19.8161L27.8072 19.5917C27.8641 19.6436 27.9184 19.698 27.97 19.7545L27.7456 20.2273C27.7241 20.2726 27.7139 20.3224 27.7157 20.3725C27.7174 20.4226 27.7313 20.4715 27.7559 20.5152C27.8303 20.6464 27.8884 20.788 27.9294 20.9358C27.9566 21.0339 28.03 21.1127 28.1259 21.147L28.6213 21.323C28.6265 21.399 28.6267 21.4753 28.6219 21.5514Z" fill="#6B2EE5"/>
<path d="M16.75 26.4373C18.6453 26.4373 20.1875 24.8951 20.1875 22.9998C20.1875 21.1045 18.6453 19.5623 16.75 19.5623C14.8546 19.5623 13.3125 21.1045 13.3125 22.9998C13.3125 24.8951 14.8546 26.4373 16.75 26.4373ZM16.75 20.1873C18.3006 20.1873 19.5625 21.4492 19.5625 22.9998C19.5625 24.5505 18.3006 25.8123 16.75 25.8123C15.1993 25.8123 13.9375 24.5505 13.9375 22.9998C13.9375 21.4492 15.1993 20.1873 16.75 20.1873ZM10.5068 17.7995L10.9868 18.1998C11.69 17.3539 12.571 16.6734 13.5671 16.2068C14.5632 15.7401 15.65 15.4987 16.75 15.4998C16.909 15.4998 17.0678 15.5089 17.2265 15.5189L16.8415 15.9039L17.2834 16.3458L18.2209 15.4083C18.2499 15.3793 18.273 15.3448 18.2887 15.3069C18.3044 15.269 18.3125 15.2284 18.3125 15.1873C18.3125 15.1463 18.3044 15.1057 18.2887 15.0677C18.273 15.0298 18.2499 14.9954 18.2209 14.9664L17.2834 14.0289L16.8415 14.4708L17.2662 14.8955C17.0944 14.8831 16.9222 14.8762 16.75 14.8748C15.5584 14.8736 14.3811 15.1351 13.3021 15.6406C12.223 16.1461 11.2686 16.8832 10.5068 17.7995ZM23.3125 12.6873C22.4509 12.6873 21.75 13.3883 21.75 14.2498C21.75 15.1114 22.4509 15.8123 23.3125 15.8123C24.174 15.8123 24.875 15.1114 24.875 14.2498C24.875 13.3883 24.174 12.6873 23.3125 12.6873ZM23.3125 15.1873C22.7956 15.1873 22.375 14.7667 22.375 14.2498C22.375 13.733 22.7956 13.3123 23.3125 13.3123C23.8293 13.3123 24.25 13.733 24.25 14.2498C24.25 14.7667 23.8293 15.1873 23.3125 15.1873ZM26.125 20.1873C25.4356 20.1873 24.875 20.748 24.875 21.4373C24.875 22.1267 25.4356 22.6873 26.125 22.6873C26.8143 22.6873 27.375 22.1267 27.375 21.4373C27.375 20.748 26.8143 20.1873 26.125 20.1873ZM26.125 22.0623C25.7803 22.0623 25.5 21.782 25.5 21.4373C25.5 21.0926 25.7803 20.8123 26.125 20.8123C26.4696 20.8123 26.75 21.0926 26.75 21.4373C26.75 21.782 26.4696 22.0623 26.125 22.0623ZM28.9987 11.4436L27.4362 11.1311C27.396 11.1229 27.3545 11.1228 27.3142 11.1307C27.2739 11.1386 27.2356 11.1544 27.2014 11.1772C27.1672 11.2 27.1379 11.2292 27.1151 11.2634C27.0922 11.2975 27.0764 11.3358 27.0684 11.3761L26.7559 12.9386L27.3687 13.0614L27.5371 12.2201C27.8416 12.8535 27.9997 13.5471 28 14.2498C28.0041 15.3155 27.641 16.3501 26.9718 17.1795L27.4596 17.5705C28.213 16.6275 28.6238 15.4567 28.625 14.2498C28.625 13.4314 28.4359 12.6245 28.0762 11.8964L28.8762 12.0564L28.9987 11.4436Z" fill="#6B2EE5"/>
</g>
<defs>
<clipPath id="clip0_10241_68">
<rect width="20" height="20" fill="white" transform="translate(10 10)"/>
</clipPath>
</defs>
</svg>
