<svg width="40" height="40" viewBox="0 0 40 40" fill="none" xmlns="http://www.w3.org/2000/svg">
<rect width="40" height="40" rx="6" fill="#FAFAFA"/>
<mask id="path-2-inside-1_7500_5091" fill="white">
<path fill-rule="evenodd" clip-rule="evenodd" d="M11.0064 8.1948L10.9587 8.18065C10.6069 8.07513 9.9848 7.89129 9.64804 8.08475C9.60775 8.11518 9.57713 8.1383 9.55197 8.16633C9.47233 8.25506 9.44747 8.39297 9.3439 8.96749L9.30454 9.18454L9.27739 9.3336C9.2377 9.55208 9.1975 9.77045 9.15676 9.98873C9.09069 10.3424 9.02514 10.6962 8.96018 11.05L8.94757 11.1187L8.84611 11.6719L8.75726 12.1564L8.74465 12.225C8.68616 12.5438 8.62733 12.8625 8.56795 13.1811C8.50554 13.5158 8.44349 13.8506 8.38201 14.1855L8.3694 14.2542L8.26794 14.8073L8.17909 15.2918L8.16649 15.3605C8.10799 15.6792 8.04916 15.9979 7.98978 16.3165C7.92736 16.6513 7.86531 16.9861 7.80383 17.321L7.79123 17.3896L7.66323 18.0878L7.59711 18.4489L7.58415 18.5196L7.57483 18.5704C7.53287 18.7994 7.49092 19.0284 7.4464 19.257C7.31788 19.914 7.18994 20.574 7.09794 21.2373L7.08937 21.3006C6.92272 22.5301 6.98785 23.7708 7.2956 24.9739L7.31174 25.0365C7.6726 26.4482 8.37038 27.7904 9.34011 28.8808C9.37562 28.9205 9.41066 28.9604 9.44521 29.0009C9.61219 29.1976 9.80026 29.3768 9.99324 29.5477C10.0288 29.5791 10.0641 29.6107 10.0992 29.6425C10.1356 29.6756 10.172 29.7085 10.2086 29.7412L10.2693 29.7953C11.5621 30.951 13.2192 31.6811 14.9303 31.9228C18.154 32.0189 20.1354 31.3445 21.7836 30.0993L21.8327 30.0621C21.9848 29.9467 22.1333 29.8293 22.2746 29.7007L22.2856 29.6906C22.3353 29.6444 22.385 29.5983 22.4362 29.5537C22.6215 29.395 22.7877 29.219 22.9515 29.0385L23.0112 28.9725C23.569 28.3619 24.0764 27.6979 24.4517 26.9583C24.4755 26.9108 24.4994 26.8633 24.5238 26.8161C24.7815 26.3215 24.9823 25.8092 25.1543 25.2796L25.1683 25.2366C25.2428 25.0097 25.3072 24.7824 25.3601 24.5494L25.3712 24.5C25.4281 24.2484 25.4827 23.9978 25.511 23.7411L25.524 23.6133C25.6253 22.7344 25.6876 21.7823 25.4472 20.9211L25.4351 20.8781C25.3029 20.3898 25.0816 19.9371 24.7153 19.5817C24.2824 19.1799 23.8106 19.0413 23.2273 19.0501C22.7069 19.0669 22.1986 19.3066 21.8428 19.6831L21.7882 19.744C21.1938 20.3982 21.1364 21.3693 21.13 22.2067C21.1294 22.2914 21.1286 22.376 21.1277 22.4607L21.1258 22.6244C21.1241 22.8858 21.0983 23.1316 21.0427 23.3873L21.0321 23.4354C20.8803 24.1361 20.6086 24.9739 20.0759 25.4812C20.0759 25.4609 20.0759 25.4499 20.073 25.4397C20.0694 25.4276 20.0617 25.4167 20.0448 25.393C19.7253 24.9837 19.5182 24.492 19.3594 24.001L19.3421 23.9469C19.1578 23.3772 19.1083 22.7601 19.1464 22.1648C19.2393 20.9657 19.7596 19.6898 20.6777 18.8837C20.7245 18.8445 20.7705 18.8053 20.8155 18.764C21.021 18.5743 21.2411 18.4047 21.4757 18.2524L21.5436 18.2096C21.6296 18.1555 21.7163 18.1038 21.8062 18.0563C22.9565 17.4769 24.2715 17.3401 25.5038 17.7424L25.5685 17.7649C26.1326 17.9608 26.6553 18.2596 27.1093 18.6469L27.1696 18.6989C27.2876 18.7968 27.3928 18.8998 27.4941 19.0151L27.5476 19.0769C28.0998 19.7014 28.4971 20.4374 28.6854 21.2523L28.6998 21.3173C28.7771 21.6636 28.8013 22.0078 28.8014 22.3617L28.8013 22.425C28.8013 22.7584 28.7928 23.0795 28.7164 23.4057C28.7083 23.4397 28.7004 23.4737 28.6928 23.5078C28.6762 23.5829 28.6581 23.6571 28.6382 23.7313L28.615 23.8134C28.426 24.5089 28.067 25.1662 27.5978 25.7125L27.5476 25.7703C27.4304 25.9123 27.3016 26.0381 27.1633 26.1595L27.1251 26.1928C26.9477 26.3478 26.7641 26.4877 26.5675 26.6177C26.0967 26.9265 25.8125 27.2275 25.5376 27.7154C25.2934 28.1489 25.0348 28.5698 24.7371 28.969L24.7013 29.0169C24.5437 29.2286 24.3822 29.4352 24.2087 29.6341L24.1453 29.7063C24.0429 29.8264 23.9362 29.9405 23.8246 30.0523L23.7645 30.1121C23.5064 30.3693 23.2424 30.6161 22.9634 30.8505L22.9223 30.8849C22.7417 31.0366 22.5592 31.1818 22.365 31.3157C22.2441 31.3969 22.1229 31.4803 22.0328 31.5965C22.0246 31.6409 22.0208 31.6617 22.0214 31.6823C22.0219 31.7004 22.0257 31.7184 22.0328 31.7521C22.0747 31.7903 22.1027 31.8159 22.1348 31.8346C22.2 31.8728 22.2817 31.8827 22.5296 31.9129L22.5971 31.9203C22.6724 31.9288 22.7478 31.937 22.8232 31.9447L22.9001 31.9523C24.1901 32.0797 25.4735 31.9541 26.7071 31.5502L26.7693 31.5298C27.258 31.3729 27.732 31.164 28.181 30.916L28.237 30.8849C28.665 30.6493 29.0766 30.394 29.463 30.0943L29.5464 30.0299C29.6796 29.9277 29.8105 29.8243 29.9354 29.7119L29.9436 29.7042C29.9896 29.6619 30.0354 29.6197 30.0828 29.579C30.2857 29.4059 30.4683 29.2121 30.6471 29.0147L30.7053 28.9502C32.5317 26.6975 33.2626 24.5681 33.2667 22.4034L33.2668 22.3319C33.2673 21.9105 33.2538 21.4968 33.1988 21.0788L33.1917 21.0254C33.1304 20.5627 33.0345 20.1148 32.9061 19.666L32.8929 19.6203C32.8497 19.47 32.8061 19.3207 32.7475 19.1756C32.7248 19.121 32.7036 19.0677 32.6848 19.0117C32.3863 18.0356 31.7935 17.0491 31.124 16.2813C31.1028 16.2572 31.0819 16.2328 31.0611 16.2083C30.9259 16.0372 30.7836 15.88 30.6294 15.726C30.5875 15.6844 30.5457 15.6428 30.5041 15.601C30.3333 15.4291 30.1586 15.2646 29.973 15.1087L29.9048 15.052C29.3309 14.5705 28.7066 14.1579 28.0302 13.8351L27.9701 13.8067C27.5834 13.6234 27.1887 13.4751 26.7821 13.3432L26.7026 13.3175C25.8846 13.0486 25.0087 12.9335 24.15 12.9311L24.08 12.9311C23.666 12.9302 23.2584 12.958 22.8485 13.0162L22.7666 13.0284C22.1961 13.109 21.607 13.2364 21.0716 13.4524C21.0097 13.4776 20.9484 13.5013 20.8853 13.5235L20.8181 13.5454L20.6986 13.5843C20.709 13.5176 20.7206 13.4518 20.7356 13.386C20.8008 13.1172 20.8441 12.8449 20.8868 12.5718L20.8987 12.4947C20.9908 11.9212 20.9793 11.2956 20.8855 10.7238L20.8765 10.6712C20.8641 10.5984 20.8504 10.5276 20.8316 10.4561L20.8098 10.3821C20.6191 9.71685 20.2862 9.13464 19.7312 8.71043L19.6757 8.66987C19.3726 8.44658 19.0371 8.30281 18.6783 8.1948L18.6305 8.18065C18.5298 8.15045 18.4289 8.12309 18.326 8.10144C18.2924 8.09506 18.2566 8.0878 18.2192 8.08021C17.9267 8.02091 17.534 7.94129 17.2977 8.10143C17.1567 8.21138 17.1254 8.35197 17.096 8.52306L17.0799 8.61813L17.0709 8.67041C17.0544 8.76584 17.0372 8.86112 17.0197 8.95637L17.0084 9.01802L16.9725 9.213L16.9337 9.42407L16.9066 9.57126L16.8111 10.0913C16.7977 10.1644 16.7844 10.2374 16.7711 10.3104C16.718 10.6021 16.6648 10.8939 16.6081 11.1849C16.5527 11.4684 16.5009 11.7524 16.4496 12.0366L16.436 12.1125C16.4315 12.1369 16.4271 12.1613 16.4227 12.1857C16.3799 12.4218 16.3372 12.6578 16.3019 12.8951L16.2956 12.9394C15.1952 12.9221 14.1043 13.1854 13.0794 13.5647L13.0267 13.5843C13.0489 13.4436 13.0733 13.3037 13.1024 13.1642C13.3502 11.9808 13.4136 10.6993 12.8259 9.60073C12.4306 8.88962 11.7767 8.42667 11.0064 8.1948ZM15.3558 18.1059C15.3874 17.9406 15.414 17.7771 15.4275 17.6092C14.4705 17.6005 13.3732 18.4206 12.7669 19.1093L12.7368 19.1436C12.1422 19.8117 11.7293 20.6047 11.5486 21.4825L11.536 21.5452C11.4347 22.0373 11.405 22.5523 11.4629 23.0529L11.4692 23.1018C11.581 24.0152 11.9256 24.9147 12.5145 25.628L12.5589 25.6813C12.6779 25.8303 12.7963 25.9747 12.9369 26.1038C13.7474 26.8298 14.8337 27.4696 15.9612 27.4158C15.9612 27.4018 15.9612 27.3918 15.9597 27.382C15.9562 27.3572 15.9435 27.3338 15.8991 27.2512C15.8808 27.2176 15.8627 27.184 15.8446 27.1503L15.8165 27.0976C15.5937 26.6801 15.3947 26.2506 15.2447 25.8013C15.2238 25.7379 15.2028 25.6746 15.1812 25.6114C15.057 25.2485 14.9573 24.8867 14.8853 24.5098L14.8715 24.436C14.7754 23.9263 14.7085 23.4101 14.6949 22.8912L14.6936 22.835C14.6715 21.9929 14.7793 21.1653 14.9403 20.3408C14.9805 20.1352 15.0182 19.9292 15.0554 19.723C15.1056 19.4443 15.1563 19.1656 15.2086 18.8873L15.2339 18.7527L15.2373 18.7347C15.2612 18.6075 15.2851 18.4803 15.3092 18.3531L15.3409 18.1851L15.3558 18.1059Z"/>
</mask>
<path fill-rule="evenodd" clip-rule="evenodd" d="M11.0064 8.1948L10.9587 8.18065C10.6069 8.07513 9.9848 7.89129 9.64804 8.08475C9.60775 8.11518 9.57713 8.1383 9.55197 8.16633C9.47233 8.25506 9.44747 8.39297 9.3439 8.96749L9.30454 9.18454L9.27739 9.3336C9.2377 9.55208 9.1975 9.77045 9.15676 9.98873C9.09069 10.3424 9.02514 10.6962 8.96018 11.05L8.94757 11.1187L8.84611 11.6719L8.75726 12.1564L8.74465 12.225C8.68616 12.5438 8.62733 12.8625 8.56795 13.1811C8.50554 13.5158 8.44349 13.8506 8.38201 14.1855L8.3694 14.2542L8.26794 14.8073L8.17909 15.2918L8.16649 15.3605C8.10799 15.6792 8.04916 15.9979 7.98978 16.3165C7.92736 16.6513 7.86531 16.9861 7.80383 17.321L7.79123 17.3896L7.66323 18.0878L7.59711 18.4489L7.58415 18.5196L7.57483 18.5704C7.53287 18.7994 7.49092 19.0284 7.4464 19.257C7.31788 19.914 7.18994 20.574 7.09794 21.2373L7.08937 21.3006C6.92272 22.5301 6.98785 23.7708 7.2956 24.9739L7.31174 25.0365C7.6726 26.4482 8.37038 27.7904 9.34011 28.8808C9.37562 28.9205 9.41066 28.9604 9.44521 29.0009C9.61219 29.1976 9.80026 29.3768 9.99324 29.5477C10.0288 29.5791 10.0641 29.6107 10.0992 29.6425C10.1356 29.6756 10.172 29.7085 10.2086 29.7412L10.2693 29.7953C11.5621 30.951 13.2192 31.6811 14.9303 31.9228C18.154 32.0189 20.1354 31.3445 21.7836 30.0993L21.8327 30.0621C21.9848 29.9467 22.1333 29.8293 22.2746 29.7007L22.2856 29.6906C22.3353 29.6444 22.385 29.5983 22.4362 29.5537C22.6215 29.395 22.7877 29.219 22.9515 29.0385L23.0112 28.9725C23.569 28.3619 24.0764 27.6979 24.4517 26.9583C24.4755 26.9108 24.4994 26.8633 24.5238 26.8161C24.7815 26.3215 24.9823 25.8092 25.1543 25.2796L25.1683 25.2366C25.2428 25.0097 25.3072 24.7824 25.3601 24.5494L25.3712 24.5C25.4281 24.2484 25.4827 23.9978 25.511 23.7411L25.524 23.6133C25.6253 22.7344 25.6876 21.7823 25.4472 20.9211L25.4351 20.8781C25.3029 20.3898 25.0816 19.9371 24.7153 19.5817C24.2824 19.1799 23.8106 19.0413 23.2273 19.0501C22.7069 19.0669 22.1986 19.3066 21.8428 19.6831L21.7882 19.744C21.1938 20.3982 21.1364 21.3693 21.13 22.2067C21.1294 22.2914 21.1286 22.376 21.1277 22.4607L21.1258 22.6244C21.1241 22.8858 21.0983 23.1316 21.0427 23.3873L21.0321 23.4354C20.8803 24.1361 20.6086 24.9739 20.0759 25.4812C20.0759 25.4609 20.0759 25.4499 20.073 25.4397C20.0694 25.4276 20.0617 25.4167 20.0448 25.393C19.7253 24.9837 19.5182 24.492 19.3594 24.001L19.3421 23.9469C19.1578 23.3772 19.1083 22.7601 19.1464 22.1648C19.2393 20.9657 19.7596 19.6898 20.6777 18.8837C20.7245 18.8445 20.7705 18.8053 20.8155 18.764C21.021 18.5743 21.2411 18.4047 21.4757 18.2524L21.5436 18.2096C21.6296 18.1555 21.7163 18.1038 21.8062 18.0563C22.9565 17.4769 24.2715 17.3401 25.5038 17.7424L25.5685 17.7649C26.1326 17.9608 26.6553 18.2596 27.1093 18.6469L27.1696 18.6989C27.2876 18.7968 27.3928 18.8998 27.4941 19.0151L27.5476 19.0769C28.0998 19.7014 28.4971 20.4374 28.6854 21.2523L28.6998 21.3173C28.7771 21.6636 28.8013 22.0078 28.8014 22.3617L28.8013 22.425C28.8013 22.7584 28.7928 23.0795 28.7164 23.4057C28.7083 23.4397 28.7004 23.4737 28.6928 23.5078C28.6762 23.5829 28.6581 23.6571 28.6382 23.7313L28.615 23.8134C28.426 24.5089 28.067 25.1662 27.5978 25.7125L27.5476 25.7703C27.4304 25.9123 27.3016 26.0381 27.1633 26.1595L27.1251 26.1928C26.9477 26.3478 26.7641 26.4877 26.5675 26.6177C26.0967 26.9265 25.8125 27.2275 25.5376 27.7154C25.2934 28.1489 25.0348 28.5698 24.7371 28.969L24.7013 29.0169C24.5437 29.2286 24.3822 29.4352 24.2087 29.6341L24.1453 29.7063C24.0429 29.8264 23.9362 29.9405 23.8246 30.0523L23.7645 30.1121C23.5064 30.3693 23.2424 30.6161 22.9634 30.8505L22.9223 30.8849C22.7417 31.0366 22.5592 31.1818 22.365 31.3157C22.2441 31.3969 22.1229 31.4803 22.0328 31.5965C22.0246 31.6409 22.0208 31.6617 22.0214 31.6823C22.0219 31.7004 22.0257 31.7184 22.0328 31.7521C22.0747 31.7903 22.1027 31.8159 22.1348 31.8346C22.2 31.8728 22.2817 31.8827 22.5296 31.9129L22.5971 31.9203C22.6724 31.9288 22.7478 31.937 22.8232 31.9447L22.9001 31.9523C24.1901 32.0797 25.4735 31.9541 26.7071 31.5502L26.7693 31.5298C27.258 31.3729 27.732 31.164 28.181 30.916L28.237 30.8849C28.665 30.6493 29.0766 30.394 29.463 30.0943L29.5464 30.0299C29.6796 29.9277 29.8105 29.8243 29.9354 29.7119L29.9436 29.7042C29.9896 29.6619 30.0354 29.6197 30.0828 29.579C30.2857 29.4059 30.4683 29.2121 30.6471 29.0147L30.7053 28.9502C32.5317 26.6975 33.2626 24.5681 33.2667 22.4034L33.2668 22.3319C33.2673 21.9105 33.2538 21.4968 33.1988 21.0788L33.1917 21.0254C33.1304 20.5627 33.0345 20.1148 32.9061 19.666L32.8929 19.6203C32.8497 19.47 32.8061 19.3207 32.7475 19.1756C32.7248 19.121 32.7036 19.0677 32.6848 19.0117C32.3863 18.0356 31.7935 17.0491 31.124 16.2813C31.1028 16.2572 31.0819 16.2328 31.0611 16.2083C30.9259 16.0372 30.7836 15.88 30.6294 15.726C30.5875 15.6844 30.5457 15.6428 30.5041 15.601C30.3333 15.4291 30.1586 15.2646 29.973 15.1087L29.9048 15.052C29.3309 14.5705 28.7066 14.1579 28.0302 13.8351L27.9701 13.8067C27.5834 13.6234 27.1887 13.4751 26.7821 13.3432L26.7026 13.3175C25.8846 13.0486 25.0087 12.9335 24.15 12.9311L24.08 12.9311C23.666 12.9302 23.2584 12.958 22.8485 13.0162L22.7666 13.0284C22.1961 13.109 21.607 13.2364 21.0716 13.4524C21.0097 13.4776 20.9484 13.5013 20.8853 13.5235L20.8181 13.5454L20.6986 13.5843C20.709 13.5176 20.7206 13.4518 20.7356 13.386C20.8008 13.1172 20.8441 12.8449 20.8868 12.5718L20.8987 12.4947C20.9908 11.9212 20.9793 11.2956 20.8855 10.7238L20.8765 10.6712C20.8641 10.5984 20.8504 10.5276 20.8316 10.4561L20.8098 10.3821C20.6191 9.71685 20.2862 9.13464 19.7312 8.71043L19.6757 8.66987C19.3726 8.44658 19.0371 8.30281 18.6783 8.1948L18.6305 8.18065C18.5298 8.15045 18.4289 8.12309 18.326 8.10144C18.2924 8.09506 18.2566 8.0878 18.2192 8.08021C17.9267 8.02091 17.534 7.94129 17.2977 8.10143C17.1567 8.21138 17.1254 8.35197 17.096 8.52306L17.0799 8.61813L17.0709 8.67041C17.0544 8.76584 17.0372 8.86112 17.0197 8.95637L17.0084 9.01802L16.9725 9.213L16.9337 9.42407L16.9066 9.57126L16.8111 10.0913C16.7977 10.1644 16.7844 10.2374 16.7711 10.3104C16.718 10.6021 16.6648 10.8939 16.6081 11.1849C16.5527 11.4684 16.5009 11.7524 16.4496 12.0366L16.436 12.1125C16.4315 12.1369 16.4271 12.1613 16.4227 12.1857C16.3799 12.4218 16.3372 12.6578 16.3019 12.8951L16.2956 12.9394C15.1952 12.9221 14.1043 13.1854 13.0794 13.5647L13.0267 13.5843C13.0489 13.4436 13.0733 13.3037 13.1024 13.1642C13.3502 11.9808 13.4136 10.6993 12.8259 9.60073C12.4306 8.88962 11.7767 8.42667 11.0064 8.1948ZM15.3558 18.1059C15.3874 17.9406 15.414 17.7771 15.4275 17.6092C14.4705 17.6005 13.3732 18.4206 12.7669 19.1093L12.7368 19.1436C12.1422 19.8117 11.7293 20.6047 11.5486 21.4825L11.536 21.5452C11.4347 22.0373 11.405 22.5523 11.4629 23.0529L11.4692 23.1018C11.581 24.0152 11.9256 24.9147 12.5145 25.628L12.5589 25.6813C12.6779 25.8303 12.7963 25.9747 12.9369 26.1038C13.7474 26.8298 14.8337 27.4696 15.9612 27.4158C15.9612 27.4018 15.9612 27.3918 15.9597 27.382C15.9562 27.3572 15.9435 27.3338 15.8991 27.2512C15.8808 27.2176 15.8627 27.184 15.8446 27.1503L15.8165 27.0976C15.5937 26.6801 15.3947 26.2506 15.2447 25.8013C15.2238 25.7379 15.2028 25.6746 15.1812 25.6114C15.057 25.2485 14.9573 24.8867 14.8853 24.5098L14.8715 24.436C14.7754 23.9263 14.7085 23.4101 14.6949 22.8912L14.6936 22.835C14.6715 21.9929 14.7793 21.1653 14.9403 20.3408C14.9805 20.1352 15.0182 19.9292 15.0554 19.723C15.1056 19.4443 15.1563 19.1656 15.2086 18.8873L15.2339 18.7527L15.2373 18.7347C15.2612 18.6075 15.2851 18.4803 15.3092 18.3531L15.3409 18.1851L15.3558 18.1059Z" fill="#4383C3"/>
<path d="M10.9587 8.18065L10.6713 9.13848L10.6748 9.13952L10.9587 8.18065ZM11.0064 8.1948L11.2947 7.23724L11.2903 7.23592L11.0064 8.1948ZM9.64804 8.08475L9.14992 7.21764L9.09551 7.2489L9.04544 7.28671L9.64804 8.08475ZM9.55197 8.16633L10.2962 8.83428L10.2962 8.83428L9.55197 8.16633ZM9.3439 8.96749L10.3279 9.14594L10.328 9.14489L9.3439 8.96749ZM9.30454 9.18454L10.2884 9.3637L10.2885 9.36299L9.30454 9.18454ZM9.27739 9.3336L8.29357 9.15444L8.2935 9.15485L9.27739 9.3336ZM9.15676 9.98873L10.1398 10.1724L10.1398 10.1722L9.15676 9.98873ZM8.96018 11.05L7.97662 10.8695L7.97661 10.8695L8.96018 11.05ZM8.94757 11.1187L7.964 10.9382L7.96398 10.9383L8.94757 11.1187ZM8.84611 11.6719L7.86252 11.4915L7.86252 11.4915L8.84611 11.6719ZM8.75726 12.1564L9.74083 12.3369L9.74085 12.3368L8.75726 12.1564ZM8.74465 12.225L7.76108 12.0445L7.76108 12.0445L8.74465 12.225ZM8.56795 13.1811L9.55101 13.3643L9.55101 13.3643L8.56795 13.1811ZM8.38201 14.1855L7.39845 14.0049L7.39844 14.005L8.38201 14.1855ZM8.3694 14.2542L7.38583 14.0737L7.38581 14.0738L8.3694 14.2542ZM8.26794 14.8073L7.28435 14.6269L7.28435 14.627L8.26794 14.8073ZM8.17909 15.2918L9.16266 15.4723L9.16269 15.4722L8.17909 15.2918ZM8.16649 15.3605L7.18291 15.18L7.18291 15.18L8.16649 15.3605ZM7.98978 16.3165L8.97284 16.4998L8.97285 16.4998L7.98978 16.3165ZM7.80383 17.321L6.82026 17.1405L6.82025 17.1405L7.80383 17.321ZM7.79123 17.3896L6.80766 17.2091L6.80763 17.2093L7.79123 17.3896ZM7.66323 18.0878L6.67962 17.9075L6.67959 17.9077L7.66323 18.0878ZM7.59711 18.4489L8.58072 18.6292L8.58075 18.629L7.59711 18.4489ZM7.58415 18.5196L6.60054 18.3393L6.60052 18.3393L7.58415 18.5196ZM7.57483 18.5704L6.59121 18.3902L6.5912 18.3902L7.57483 18.5704ZM7.4464 19.257L8.4278 19.4489L8.42795 19.4482L7.4464 19.257ZM7.09794 21.2373L6.10741 21.0999L6.10697 21.1032L7.09794 21.2373ZM7.08937 21.3006L8.08031 21.4349L8.08034 21.4347L7.08937 21.3006ZM7.2956 24.9739L6.32679 25.2217L6.32731 25.2238L7.2956 24.9739ZM7.31174 25.0365L8.28059 24.7888L8.28003 24.7866L7.31174 25.0365ZM9.34011 28.8808L8.59286 29.5454L8.59494 29.5477L9.34011 28.8808ZM9.44521 29.0009L10.2077 28.3538L10.2062 28.3521L9.44521 29.0009ZM9.99324 29.5477L9.33021 30.2963L9.33114 30.2971L9.99324 29.5477ZM10.0992 29.6425L10.7718 28.9025L10.771 28.9018L10.0992 29.6425ZM10.2086 29.7412L9.5412 30.486L9.54382 30.4883L10.2086 29.7412ZM10.2693 29.7953L10.9358 29.0497L10.9341 29.0482L10.2693 29.7953ZM14.9303 31.9228L14.7905 32.913L14.8453 32.9207L14.9005 32.9224L14.9303 31.9228ZM21.7836 30.0993L22.3864 30.8972L22.3882 30.8959L21.7836 30.0993ZM21.8327 30.0621L21.2285 29.2653L21.2281 29.2655L21.8327 30.0621ZM22.2746 29.7007L22.9475 30.4405L22.955 30.4336L22.2746 29.7007ZM22.2856 29.6906L22.966 30.4234L22.9661 30.4233L22.2856 29.6906ZM22.4362 29.5537L21.7858 28.7941L21.7796 28.7994L22.4362 29.5537ZM22.9515 29.0385L23.692 29.7105L23.6928 29.7096L22.9515 29.0385ZM23.0112 28.9725L22.2729 28.298L22.2699 28.3014L23.0112 28.9725ZM24.4517 26.9583L25.3435 27.4108L25.3454 27.4069L24.4517 26.9583ZM24.5238 26.8161L23.6369 26.3541L23.6357 26.3564L24.5238 26.8161ZM25.1543 25.2796L26.1054 25.5884L26.1054 25.5884L25.1543 25.2796ZM25.1683 25.2366L24.2181 24.9247L24.2171 24.9278L25.1683 25.2366ZM25.3601 24.5494L26.3353 24.7706L26.3356 24.769L25.3601 24.5494ZM25.3712 24.5L24.3958 24.2792L24.3956 24.2804L25.3712 24.5ZM25.511 23.7411L26.505 23.8509L26.5059 23.8425L25.511 23.7411ZM25.524 23.6133L24.5305 23.4988L24.5292 23.5119L25.524 23.6133ZM25.4472 20.9211L26.4104 20.6522L26.4096 20.6492L25.4472 20.9211ZM25.4351 20.8781L24.4698 21.1395L24.4728 21.15L25.4351 20.8781ZM24.7153 19.5817L25.4116 18.864L25.4037 18.8563L25.3956 18.8488L24.7153 19.5817ZM23.2273 19.0501L23.2121 18.0503L23.2036 18.0504L23.1952 18.0507L23.2273 19.0501ZM21.8428 19.6831L21.1159 18.9964L21.1071 19.0057L21.0985 19.0153L21.8428 19.6831ZM21.7882 19.744L22.5283 20.4165L22.5325 20.4119L21.7882 19.744ZM21.13 22.2067L20.13 22.1991L20.13 22.1996L21.13 22.2067ZM21.1277 22.4607L22.1276 22.4724L22.1276 22.4714L21.1277 22.4607ZM21.1258 22.6244L20.1258 22.6128L20.1258 22.6179L21.1258 22.6244ZM21.0427 23.3873L22.0194 23.6019L22.0199 23.5997L21.0427 23.3873ZM21.0321 23.4354L20.0554 23.2208L20.0548 23.2236L21.0321 23.4354ZM20.0759 25.4812H19.0759V27.8148L20.7656 26.2053L20.0759 25.4812ZM20.073 25.4397L21.0329 25.1596L21.0329 25.1596L20.073 25.4397ZM20.0448 25.393L20.8601 24.8139L20.847 24.7954L20.833 24.7775L20.0448 25.393ZM19.3594 24.001L18.4067 24.305L18.4079 24.3088L19.3594 24.001ZM19.3421 23.9469L20.2948 23.6429L20.2935 23.639L19.3421 23.9469ZM19.1464 22.1648L18.1493 22.0876L18.1485 22.101L19.1464 22.1648ZM20.6777 18.8837L20.0354 18.1173L20.0266 18.1247L20.0179 18.1323L20.6777 18.8837ZM20.8155 18.764L21.4913 19.5011L21.4937 19.4989L20.8155 18.764ZM21.4757 18.2524L20.9431 17.406L20.9371 17.4098L20.931 17.4137L21.4757 18.2524ZM21.5436 18.2096L22.0761 19.0561L22.0761 19.0561L21.5436 18.2096ZM21.8062 18.0563L21.3563 17.1632L21.3475 17.1676L21.3387 17.1723L21.8062 18.0563ZM25.5038 17.7424L25.8322 16.7979L25.8232 16.7947L25.8141 16.7918L25.5038 17.7424ZM25.5685 17.7649L25.2401 18.7094L25.2405 18.7096L25.5685 17.7649ZM27.1093 18.6469L27.7621 17.8894L27.7583 17.8861L27.1093 18.6469ZM27.1696 18.6989L26.5168 19.4564L26.5237 19.4624L26.5308 19.4682L27.1696 18.6989ZM27.4941 19.0151L28.2499 18.3603L28.2455 18.3553L27.4941 19.0151ZM27.5476 19.0769L26.7918 19.7317L26.7985 19.7393L27.5476 19.0769ZM28.6854 21.2523L29.6616 21.0353L29.6597 21.0273L28.6854 21.2523ZM28.6998 21.3173L27.7236 21.5343L27.7238 21.5352L28.6998 21.3173ZM28.8014 22.3617L29.8014 22.3637L29.8014 22.3615L28.8014 22.3617ZM28.8013 22.425L27.8013 22.4231V22.4251L28.8013 22.425ZM28.7164 23.4057L29.6888 23.6391L29.6901 23.6337L28.7164 23.4057ZM28.6928 23.5078L27.7167 23.2908L27.7164 23.2919L28.6928 23.5078ZM28.6382 23.7313L29.6006 24.0033L29.6042 23.9899L28.6382 23.7313ZM28.615 23.8134L27.6526 23.5415L27.65 23.5512L28.615 23.8134ZM27.5978 25.7125L28.3526 26.3686L28.3565 26.364L27.5978 25.7125ZM27.5476 25.7703L26.7929 25.1143L26.7846 25.1239L26.7765 25.1336L27.5476 25.7703ZM27.1633 26.1595L27.8202 26.9136L27.8231 26.911L27.1633 26.1595ZM27.1251 26.1928L26.4683 25.4388L26.4672 25.4398L27.1251 26.1928ZM26.5675 26.6177L27.116 27.4538L27.1188 27.452L26.5675 26.6177ZM25.5376 27.7154L24.6664 27.2244L24.6663 27.2246L25.5376 27.7154ZM24.7371 28.969L25.5378 29.5682L25.5388 29.5668L24.7371 28.969ZM24.7013 29.0169L23.9006 28.4178L23.8991 28.4198L24.7013 29.0169ZM24.2087 29.6341L24.9601 30.2941L24.9623 30.2915L24.2087 29.6341ZM24.1453 29.7063L23.394 29.0463L23.3892 29.0518L23.3845 29.0574L24.1453 29.7063ZM23.8246 30.0523L24.5299 30.7613L24.5326 30.7586L23.8246 30.0523ZM23.7645 30.1121L23.0593 29.4032L23.0587 29.4037L23.7645 30.1121ZM22.9634 30.8505L23.6054 31.6171L23.6065 31.6162L22.9634 30.8505ZM22.9223 30.8849L22.2802 30.1182L22.2791 30.1192L22.9223 30.8849ZM22.365 31.3157L22.9225 32.146L22.9325 32.139L22.365 31.3157ZM22.0328 31.5965L21.2428 30.9833L21.0932 31.1761L21.0492 31.4161L22.0328 31.5965ZM22.0214 31.6823L23.021 31.6562V31.6561L22.0214 31.6823ZM22.0328 31.7521L21.0545 31.9591L21.1211 32.2742L21.3591 32.4911L22.0328 31.7521ZM22.1348 31.8346L21.6296 32.6977L21.6297 32.6977L22.1348 31.8346ZM22.5296 31.9129L22.4088 32.9056L22.4204 32.9069L22.5296 31.9129ZM22.5971 31.9203L22.7091 30.9266L22.7063 30.9263L22.5971 31.9203ZM22.8232 31.9447L22.7217 32.9395L22.725 32.9399L22.8232 31.9447ZM22.9001 31.9523L22.9984 30.9571L22.9982 30.9571L22.9001 31.9523ZM26.7071 31.5502L27.0182 32.5006L27.0193 32.5002L26.7071 31.5502ZM26.7693 31.5298L26.4637 30.5776L26.4571 30.5798L26.7693 31.5298ZM28.181 30.916L28.6645 31.7913L28.6665 31.7902L28.181 30.916ZM28.237 30.8849L27.7549 30.0088L27.7515 30.0106L28.237 30.8849ZM29.463 30.0943L28.8518 29.3028L28.8501 29.3042L29.463 30.0943ZM29.5464 30.0299L28.9375 29.2367L28.9352 29.2384L29.5464 30.0299ZM29.9354 29.7119L30.6047 30.4549L30.6125 30.4478L29.9354 29.7119ZM29.9436 29.7042L30.6207 30.4401L30.6209 30.44L29.9436 29.7042ZM30.0828 29.579L29.434 28.818L29.43 28.8214L30.0828 29.579ZM30.6471 29.0147L31.3884 29.6859L31.3893 29.6849L30.6471 29.0147ZM30.7053 28.9502L31.4475 29.6204L31.4654 29.6007L31.4821 29.58L30.7053 28.9502ZM33.2667 22.4034L34.2667 22.4053V22.4042L33.2667 22.4034ZM33.2668 22.3319L32.2668 22.3307V22.331L33.2668 22.3319ZM33.1988 21.0788L34.1903 20.9484L34.1901 20.9466L33.1988 21.0788ZM33.1917 21.0254L32.2004 21.1568L32.2005 21.1576L33.1917 21.0254ZM32.9061 19.666L33.8674 19.3908L33.8671 19.3895L32.9061 19.666ZM32.8929 19.6203L31.9318 19.8965L31.9319 19.8968L32.8929 19.6203ZM32.7475 19.1756L33.6749 18.8013L33.6707 18.7914L32.7475 19.1756ZM32.6848 19.0117L31.7285 19.3041L31.7324 19.317L31.7367 19.3298L32.6848 19.0117ZM31.124 16.2813L31.8777 15.6241L31.8761 15.6223L31.124 16.2813ZM31.0611 16.2083L30.2766 16.8284L30.2872 16.8418L30.2983 16.855L31.0611 16.2083ZM30.6294 15.726L31.3361 15.0185L31.3341 15.0165L30.6294 15.726ZM30.5041 15.601L29.7946 16.3057L29.795 16.3061L30.5041 15.601ZM29.973 15.1087L30.616 14.3428L30.6127 14.3401L29.973 15.1087ZM29.9048 15.052L29.2621 15.8181L29.2651 15.8206L29.9048 15.052ZM28.0302 13.8351L28.4609 12.9326L28.4577 12.931L28.0302 13.8351ZM27.9701 13.8067L27.5419 14.7103L27.5426 14.7107L27.9701 13.8067ZM26.7821 13.3432L27.0908 12.392L27.0898 12.3917L26.7821 13.3432ZM26.7026 13.3175L26.3904 14.2675L26.3949 14.2689L26.7026 13.3175ZM24.15 12.9311L24.1527 11.9311L24.1508 11.9311L24.15 12.9311ZM24.08 12.9311L24.0779 13.9311L24.0792 13.9311L24.08 12.9311ZM22.8485 13.0162L22.7079 12.0261L22.7014 12.0271L22.8485 13.0162ZM22.7666 13.0284L22.9067 14.0185L22.9136 14.0175L22.7666 13.0284ZM21.0716 13.4524L20.6976 12.5249L20.6933 12.5267L21.0716 13.4524ZM20.8853 13.5235L21.1949 14.4744L21.2059 14.4708L21.2169 14.4669L20.8853 13.5235ZM20.8181 13.5454L21.1277 14.4963L21.1277 14.4963L20.8181 13.5454ZM20.6986 13.5843L19.7107 13.4292L19.4579 15.0399L21.0081 14.5352L20.6986 13.5843ZM20.7356 13.386L19.7636 13.1503L19.7605 13.164L20.7356 13.386ZM20.8868 12.5718L21.8748 12.7259L21.875 12.7248L20.8868 12.5718ZM20.8987 12.4947L19.9113 12.3362L19.9105 12.3416L20.8987 12.4947ZM20.8855 10.7238L21.8723 10.562L21.8711 10.5547L20.8855 10.7238ZM20.8765 10.6712L19.8905 10.8382L19.8909 10.8403L20.8765 10.6712ZM20.8316 10.4561L21.799 10.2027L21.795 10.1875L21.7906 10.1725L20.8316 10.4561ZM20.8098 10.3821L19.8484 10.6576L19.8508 10.6658L20.8098 10.3821ZM19.7312 8.71043L20.3386 7.91597L20.3297 7.9092L20.3207 7.90262L19.7312 8.71043ZM19.6757 8.66987L19.0824 9.4749L19.0862 9.47768L19.6757 8.66987ZM18.6783 8.1948L18.9666 7.23724L18.9621 7.23592L18.6783 8.1948ZM18.6305 8.18065L18.3432 9.13848L18.3467 9.13952L18.6305 8.18065ZM18.326 8.10144L18.5321 7.12289L18.5223 7.12083L18.5125 7.11897L18.326 8.10144ZM18.2192 8.08021L18.0204 9.06027L18.0204 9.06027L18.2192 8.08021ZM17.2977 8.10143L16.7367 7.27356L16.709 7.29237L16.6825 7.31301L17.2977 8.10143ZM17.096 8.52306L16.1104 8.35384L16.1101 8.35581L17.096 8.52306ZM17.0799 8.61813L18.0653 8.7885L18.0658 8.78538L17.0799 8.61813ZM17.0709 8.67041L16.0855 8.50004L16.0854 8.50052L17.0709 8.67041ZM17.0197 8.95637L18.0032 9.13742L18.0033 9.13683L17.0197 8.95637ZM17.0084 9.01802L16.0249 8.83697L16.0249 8.83708L17.0084 9.01802ZM16.9725 9.213L17.956 9.39404L17.956 9.39394L16.9725 9.213ZM16.9337 9.42407L15.9502 9.24304L15.9502 9.24313L16.9337 9.42407ZM16.9066 9.57126L15.9231 9.39031L15.923 9.39068L16.9066 9.57126ZM16.8111 10.0913L15.8275 9.91076L15.8274 9.91133L16.8111 10.0913ZM16.7711 10.3104L15.7873 10.1312V10.1312L16.7711 10.3104ZM16.6081 11.1849L17.5895 11.3769L17.5897 11.3761L16.6081 11.1849ZM16.4496 12.0366L15.4655 11.8591L15.4655 11.8591L16.4496 12.0366ZM16.436 12.1125L17.42 12.2904L17.4201 12.29L16.436 12.1125ZM16.4227 12.1857L15.4387 12.0075V12.0075L16.4227 12.1857ZM16.3019 12.8951L15.3128 12.7483L15.3121 12.7531L16.3019 12.8951ZM16.2956 12.9394L16.2798 13.9393L17.1604 13.9532L17.2855 13.0814L16.2956 12.9394ZM13.0794 13.5647L12.7324 12.6268L12.7303 12.6276L13.0794 13.5647ZM13.0267 13.5843L12.0389 13.4289L11.773 15.1185L13.3758 14.5214L13.0267 13.5843ZM13.1024 13.1642L12.1236 12.9593L12.1234 12.9605L13.1024 13.1642ZM12.8259 9.60073L13.7077 9.12904L13.7039 9.12187L13.6999 9.11477L12.8259 9.60073ZM15.4275 17.6092L16.4243 17.6891L16.5101 16.619L15.4365 16.6092L15.4275 17.6092ZM15.3558 18.1059L14.3736 17.9182L14.373 17.9212L15.3558 18.1059ZM12.7669 19.1093L12.0164 18.4485L12.0157 18.4492L12.7669 19.1093ZM12.7368 19.1436L13.4838 19.8084L13.488 19.8036L12.7368 19.1436ZM11.5486 21.4825L10.5691 21.2808L10.5682 21.2853L11.5486 21.4825ZM11.536 21.5452L12.5155 21.7467L12.5163 21.7424L11.536 21.5452ZM11.4629 23.0529L10.4695 23.1679L10.4711 23.1806L11.4629 23.0529ZM11.4692 23.1018L12.4619 22.9804L12.4611 22.9741L11.4692 23.1018ZM12.5145 25.628L11.7433 26.2646L11.7458 26.2677L12.5145 25.628ZM12.5589 25.6813L13.3403 25.0573L13.334 25.0494L13.3275 25.0416L12.5589 25.6813ZM12.9369 26.1038L12.2605 26.8404L12.2697 26.8487L12.9369 26.1038ZM15.9612 27.4158L16.0088 28.4147L16.9612 28.3693V27.4158H15.9612ZM15.9597 27.382L16.9494 27.2388L16.9494 27.2388L15.9597 27.382ZM15.8991 27.2512L16.7796 26.7772L16.7776 26.7735L15.8991 27.2512ZM15.8446 27.1503L14.9622 27.6207L14.963 27.6221L15.8446 27.1503ZM15.8165 27.0976L16.6989 26.6271L16.6988 26.6268L15.8165 27.0976ZM15.2447 25.8013L14.2948 26.1139L14.2961 26.1178L15.2447 25.8013ZM15.1812 25.6114L16.1275 25.288L16.1274 25.2877L15.1812 25.6114ZM14.8853 24.5098L13.9024 24.6936L13.9031 24.6972L14.8853 24.5098ZM14.8715 24.436L15.8545 24.2522L15.8542 24.2508L14.8715 24.436ZM14.6949 22.8912L13.6952 22.9143L13.6953 22.9173L14.6949 22.8912ZM14.6936 22.835L15.6934 22.8118L15.6933 22.8086L14.6936 22.835ZM14.9403 20.3408L13.9589 20.1489L13.9589 20.1492L14.9403 20.3408ZM15.0554 19.723L16.0395 19.9003L16.0396 19.9002L15.0554 19.723ZM15.2086 18.8873L14.2258 18.7025L14.2258 18.7025L15.2086 18.8873ZM15.2339 18.7527L16.2167 18.9375L16.2168 18.9372L15.2339 18.7527ZM15.2373 18.7347L14.2545 18.5502L14.2545 18.5502L15.2373 18.7347ZM15.3092 18.3531L16.2917 18.5394L16.2918 18.5387L15.3092 18.3531ZM15.3409 18.1851L16.3235 18.3707L16.3237 18.3699L15.3409 18.1851ZM10.6748 9.13952L10.7226 9.15367L11.2903 7.23592L11.2425 7.22177L10.6748 9.13952ZM10.1462 8.95186C10.0594 9.00173 10.0018 9.00186 10.0201 9.00049C10.0351 8.99937 10.078 8.9992 10.1545 9.01027C10.3127 9.03317 10.4892 9.08384 10.6713 9.13847L11.246 7.22282C11.0764 7.17193 10.7659 7.07793 10.441 7.03089C10.1632 6.99069 9.62861 6.94265 9.14992 7.21764L10.1462 8.95186ZM10.2962 8.83428C10.2651 8.86886 10.2394 8.89067 10.2314 8.89728C10.2275 8.90047 10.2263 8.90132 10.2301 8.89837C10.2344 8.8951 10.2397 8.89106 10.2506 8.88279L9.04544 7.28671C9.02509 7.30207 8.90999 7.38448 8.80776 7.49838L10.2962 8.83428ZM10.328 9.14489C10.3543 8.99945 10.3742 8.88878 10.3912 8.79975C10.4085 8.70907 10.4197 8.65688 10.4275 8.62548C10.4358 8.59201 10.4334 8.61078 10.4155 8.65133C10.3921 8.70456 10.3532 8.7707 10.2962 8.83428L8.80776 7.49838C8.60199 7.72764 8.52745 7.97818 8.48632 8.144C8.44731 8.30127 8.40829 8.52088 8.35977 8.79008L10.328 9.14489ZM10.2885 9.36299L10.3279 9.14594L8.35996 8.78903L8.32059 9.00608L10.2885 9.36299ZM10.2612 9.51276L10.2884 9.3637L8.32072 9.00538L8.29357 9.15444L10.2612 9.51276ZM10.1398 10.1722C10.1808 9.95231 10.2213 9.73235 10.2613 9.51234L8.2935 9.15485C8.25409 9.3718 8.21418 9.58859 8.17374 9.80525L10.1398 10.1722ZM9.94374 11.2306C10.0085 10.8778 10.0739 10.5251 10.1398 10.1724L8.17377 9.80509C8.10752 10.1597 8.04178 10.5145 7.97662 10.8695L9.94374 11.2306ZM9.93114 11.2993L9.94375 11.2305L7.97661 10.8695L7.964 10.9382L9.93114 11.2993ZM9.8297 11.8523L9.93116 11.2992L7.96398 10.9383L7.86252 11.4915L9.8297 11.8523ZM9.74085 12.3368L9.82971 11.8523L7.86252 11.4915L7.77367 11.976L9.74085 12.3368ZM9.72823 12.4056L9.74083 12.3369L7.77369 11.9758L7.76108 12.0445L9.72823 12.4056ZM9.55101 13.3643C9.61061 13.0446 9.66961 12.725 9.72823 12.4056L7.76108 12.0445C7.70271 12.3626 7.64405 12.6804 7.58488 12.9978L9.55101 13.3643ZM9.36558 14.366C9.42685 14.0322 9.48873 13.6984 9.55101 13.3643L7.58489 12.9978C7.52235 13.3332 7.46013 13.6689 7.39845 14.0049L9.36558 14.366ZM9.35298 14.4347L9.36559 14.366L7.39844 14.005L7.38583 14.0737L9.35298 14.4347ZM9.25154 14.9878L9.35299 14.4346L7.38581 14.0738L7.28435 14.6269L9.25154 14.9878ZM9.16269 15.4722L9.25154 14.9877L7.28435 14.627L7.1955 15.1114L9.16269 15.4722ZM9.15006 15.541L9.16266 15.4723L7.19552 15.1113L7.18291 15.18L9.15006 15.541ZM8.97285 16.4998C9.03244 16.18 9.09144 15.8604 9.15006 15.541L7.18291 15.18C7.12454 15.4981 7.06589 15.8158 7.00671 16.1333L8.97285 16.4998ZM8.78739 17.5016C8.84867 17.1678 8.91055 16.8339 8.97284 16.4998L7.00672 16.1332C6.94418 16.4687 6.88195 16.8044 6.82026 17.1405L8.78739 17.5016ZM8.7748 17.5702L8.7874 17.5016L6.82025 17.1405L6.80766 17.2091L8.7748 17.5702ZM8.64683 18.2682L8.77484 17.57L6.80763 17.2093L6.67962 17.9075L8.64683 18.2682ZM8.58075 18.629L8.64687 18.268L6.67959 17.9077L6.61347 18.2687L8.58075 18.629ZM8.56776 18.6999L8.58072 18.6292L6.6135 18.2685L6.60054 18.3393L8.56776 18.6999ZM8.55845 18.7507L8.56777 18.6998L6.60052 18.3393L6.59121 18.3902L8.55845 18.7507ZM8.42795 19.4482C8.47371 19.2132 8.51667 18.9787 8.55846 18.7506L6.5912 18.3902C6.54908 18.6201 6.50812 18.8436 6.46485 19.0658L8.42795 19.4482ZM8.08845 21.3747C8.17609 20.7429 8.29871 20.1089 8.4278 19.4489L6.465 19.065C6.33705 19.7191 6.20378 20.4052 6.10742 21.0999L8.08845 21.3747ZM8.08034 21.4347L8.0889 21.3714L6.10697 21.1032L6.0984 21.1665L8.08034 21.4347ZM8.2644 24.7261C7.98947 23.6513 7.93046 22.5404 8.08031 21.4349L6.09843 21.1663C5.91498 22.5197 5.98623 23.8904 6.32679 25.2217L8.2644 24.7261ZM8.28003 24.7866L8.26388 24.7241L6.32731 25.2238L6.34346 25.2863L8.28003 24.7866ZM10.0874 28.2163C9.2279 27.2499 8.60351 26.0521 8.28059 24.7888L6.34289 25.2841C6.74169 26.8443 7.51286 28.331 8.59287 29.5454L10.0874 28.2163ZM10.2062 28.3521C10.1651 28.3039 10.1245 28.2578 10.0853 28.214L8.59494 29.5477C8.62677 29.5833 8.65627 29.6168 8.68421 29.6496L10.2062 28.3521ZM10.6563 28.7991C10.4791 28.6422 10.3307 28.4988 10.2077 28.3538L8.68278 29.6479C8.89372 29.8965 9.12141 30.1113 9.33021 30.2963L10.6563 28.7991ZM10.771 28.9018C10.7326 28.867 10.6941 28.8325 10.6553 28.7983L9.33114 30.2971C9.36347 30.3257 9.39556 30.3544 9.42741 30.3833L10.771 28.9018ZM10.876 28.9965C10.841 28.9652 10.8063 28.9339 10.7718 28.9025L9.42667 30.3826C9.46483 30.4173 9.50301 30.4517 9.5412 30.4859L10.876 28.9965ZM10.9341 29.0482L10.8733 28.9942L9.54382 30.4883L9.60454 30.5423L10.9341 29.0482ZM15.0702 30.9326C13.5407 30.7166 12.0707 30.0644 10.9358 29.0498L9.60279 30.5408C11.0534 31.8377 12.8977 32.6456 14.7905 32.913L15.0702 30.9326ZM21.1808 29.3014C19.7498 30.3824 18.005 31.014 14.9601 30.9233L14.9005 32.9224C18.3031 33.0238 20.5209 32.3065 22.3864 30.8972L21.1808 29.3014ZM21.2281 29.2655L21.1791 29.3027L22.3882 30.8959L22.4372 30.8587L21.2281 29.2655ZM21.6018 28.961C21.4928 29.0601 21.3715 29.1568 21.2285 29.2653L22.4369 30.8589C22.5982 30.7366 22.7739 30.5984 22.9475 30.4405L21.6018 28.961ZM21.6052 28.9577L21.5942 28.9679L22.955 30.4336L22.966 30.4234L21.6052 28.9577ZM21.7796 28.7994C21.7143 28.8563 21.6529 28.9134 21.6051 28.9578L22.9661 30.4233C23.0178 30.3753 23.0557 30.3402 23.0928 30.308L21.7796 28.7994ZM22.2109 28.3665C22.0528 28.5408 21.9211 28.6782 21.7858 28.7941L23.0866 30.3133C23.3218 30.1118 23.5227 29.8971 23.692 29.7105L22.2109 28.3665ZM22.2699 28.3014L22.2101 28.3674L23.6928 29.7096L23.7526 29.6436L22.2699 28.3014ZM23.56 26.5057C23.2388 27.1386 22.7934 27.7283 22.273 28.298L23.7495 29.647C24.3447 28.9955 24.914 28.2571 25.3435 27.4108L23.56 26.5057ZM23.6357 26.3564C23.608 26.41 23.5815 26.4629 23.558 26.5097L25.3454 27.4069C25.3696 27.3587 25.3908 27.3166 25.4119 27.2758L23.6357 26.3564ZM24.2032 24.9707C24.0432 25.4635 23.8623 25.9216 23.6369 26.3541L25.4107 27.2781C25.7007 26.7214 25.9215 26.1549 26.1054 25.5884L24.2032 24.9707ZM24.2171 24.9278L24.2032 24.9707L26.1054 25.5884L26.1194 25.5455L24.2171 24.9278ZM24.3848 24.3282C24.3398 24.5268 24.2842 24.7236 24.2182 24.9247L26.1183 25.5486C26.2014 25.2957 26.2746 25.038 26.3353 24.7706L24.3848 24.3282ZM24.3956 24.2804L24.3845 24.3298L26.3356 24.769L26.3468 24.7196L24.3956 24.2804ZM24.5171 23.6313C24.4956 23.8257 24.453 24.0265 24.3958 24.2792L26.3465 24.7208C26.4032 24.4703 26.4697 24.1699 26.505 23.8509L24.5171 23.6313ZM24.5292 23.5119L24.5162 23.6396L26.5059 23.8425L26.5189 23.7147L24.5292 23.5119ZM24.4841 21.19C24.6676 21.8474 24.6309 22.6283 24.5306 23.4988L26.5175 23.7277C26.6197 22.8404 26.7077 21.7171 26.4104 20.6522L24.4841 21.19ZM24.4728 21.15L24.4849 21.1929L26.4096 20.6492L26.3974 20.6063L24.4728 21.15ZM24.0189 20.2993C24.2204 20.4949 24.3696 20.7692 24.4699 21.1395L26.4003 20.6168C26.2362 20.0104 25.9427 19.3793 25.4116 18.864L24.0189 20.2993ZM23.2425 20.05C23.6239 20.0442 23.8281 20.1226 24.0349 20.3146L25.3956 18.8488C24.7368 18.2372 23.9974 18.0383 23.2121 18.0503L23.2425 20.05ZM22.5698 20.3698C22.7533 20.1756 23.0157 20.0575 23.2594 20.0496L23.1952 18.0507C22.3982 18.0763 21.6439 18.4375 21.1159 18.9964L22.5698 20.3698ZM22.5325 20.4119L22.5871 20.351L21.0985 19.0153L21.0439 19.0762L22.5325 20.4119ZM22.13 22.2143C22.1367 21.3335 22.224 20.7514 22.5283 20.4165L21.0481 19.0715C20.1635 20.045 20.1361 21.4051 20.13 22.1991L22.13 22.2143ZM22.1276 22.4714C22.1285 22.3861 22.1294 22.3001 22.13 22.2137L20.13 22.1996C20.1294 22.2826 20.1286 22.3659 20.1277 22.45L22.1276 22.4714ZM22.1257 22.6361L22.1276 22.4724L20.1277 22.449L20.1258 22.6128L22.1257 22.6361ZM22.0199 23.5997C22.0909 23.2728 22.1236 22.9578 22.1257 22.6309L20.1258 22.6179C20.1245 22.8138 20.1056 22.9905 20.0655 23.1749L22.0199 23.5997ZM22.0088 23.65L22.0194 23.6019L20.066 23.1727L20.0554 23.2208L22.0088 23.65ZM20.7656 26.2053C21.5336 25.4738 21.853 24.3691 22.0094 23.6472L20.0548 23.2236C19.9076 23.9032 19.6835 24.474 19.3862 24.7572L20.7656 26.2053ZM19.113 25.7198C19.0859 25.6271 19.0793 25.5511 19.0771 25.513C19.0761 25.4952 19.076 25.4822 19.0759 25.479C19.0759 25.4762 19.0759 25.4746 19.0759 25.4812H21.0759C21.0759 25.4777 21.0759 25.4671 21.0758 25.4562C21.0757 25.4449 21.0753 25.4247 21.074 25.4003C21.0711 25.3491 21.0629 25.2624 21.0329 25.1596L19.113 25.7198ZM19.2296 25.9721C19.2348 25.9794 19.2348 25.9794 19.2339 25.9782C19.233 25.9769 19.2252 25.9656 19.2149 25.9492C19.1926 25.9132 19.146 25.8329 19.113 25.7198L21.0329 25.1596C20.9964 25.0344 20.9442 24.9426 20.9129 24.8923C20.8885 24.8531 20.8613 24.8156 20.8601 24.8139L19.2296 25.9721ZM18.4079 24.3088C18.5814 24.8451 18.8321 25.4648 19.2567 26.0084L20.833 24.7775C20.6184 24.5027 20.455 24.1389 20.3109 23.6933L18.4079 24.3088ZM18.3894 24.2508L18.4067 24.305L20.3121 23.6971L20.2948 23.6429L18.3894 24.2508ZM18.1485 22.101C18.1044 22.7894 18.1586 23.5376 18.3907 24.2547L20.2935 23.639C20.1569 23.2168 20.1123 22.7308 20.1444 22.2286L18.1485 22.101ZM20.0179 18.1323C18.8619 19.1473 18.2577 20.6898 18.1494 22.0876L20.1434 22.242C20.2209 21.2417 20.6573 20.2324 21.3375 19.6352L20.0179 18.1323ZM20.1396 18.027C20.1112 18.053 20.0787 18.081 20.0354 18.1173L21.32 19.6502C21.3703 19.608 21.4298 19.5575 21.4913 19.5011L20.1396 18.027ZM20.931 17.4137C20.6513 17.5953 20.3862 17.7994 20.1373 18.0291L21.4937 19.4989C21.6558 19.3493 21.8309 19.214 22.0203 19.0911L20.931 17.4137ZM21.0111 17.3632L20.9431 17.406L22.0082 19.0988L22.0761 19.0561L21.0111 17.3632ZM21.3387 17.1723C21.2194 17.2354 21.1098 17.3011 21.0111 17.3632L22.0761 19.0561C22.1494 19.0099 22.2133 18.9722 22.2736 18.9403L21.3387 17.1723ZM25.8141 16.7918C24.3117 16.3013 22.724 16.4743 21.3563 17.1632L22.256 18.9494C23.189 18.4795 24.2313 18.3789 25.1935 18.693L25.8141 16.7918ZM25.8969 16.8204L25.8322 16.7979L25.1754 18.687L25.2401 18.7094L25.8969 16.8204ZM27.7583 17.8861C27.2092 17.4177 26.5776 17.0567 25.8965 16.8202L25.2405 18.7096C25.6877 18.8648 26.1013 19.1015 26.4603 19.4077L27.7583 17.8861ZM27.8224 17.9413L27.7621 17.8894L26.4566 19.4045L26.5168 19.4564L27.8224 17.9413ZM28.2455 18.3553C28.1109 18.202 27.9682 18.0622 27.8085 17.9295L26.5308 19.4682C26.607 19.5315 26.6748 19.5976 26.7427 19.675L28.2455 18.3553ZM28.3034 18.4221L28.2499 18.3603L26.7383 19.6699L26.7918 19.7317L28.3034 18.4221ZM29.6597 21.0273C29.431 20.0373 28.9503 19.1536 28.2968 18.4145L26.7985 19.7393C27.2493 20.2492 27.5632 20.8375 27.711 21.4774L29.6597 21.0273ZM29.676 21.1003L29.6615 21.0353L27.7092 21.4694L27.7236 21.5343L29.676 21.1003ZM29.8014 22.3615C29.8013 21.9631 29.7743 21.5406 29.6758 21.0994L27.7238 21.5352C27.78 21.7867 27.8013 22.0525 27.8014 22.362L29.8014 22.3615ZM29.8013 22.4269L29.8014 22.3637L27.8014 22.3598L27.8013 22.4231L29.8013 22.4269ZM29.6901 23.6337C29.7948 23.1867 29.8013 22.766 29.8013 22.4249L27.8013 22.4251C27.8013 22.7509 27.7909 22.9724 27.7428 23.1778L29.6901 23.6337ZM29.669 23.7248C29.6753 23.6965 29.6819 23.6679 29.6888 23.6391L27.744 23.1724C27.7347 23.2115 27.7255 23.251 27.7167 23.2908L29.669 23.7248ZM29.6042 23.9899C29.6279 23.9015 29.6495 23.813 29.6692 23.7237L27.7164 23.2919C27.703 23.3527 27.6883 23.4127 27.6722 23.4728L29.6042 23.9899ZM29.5774 24.0853L29.6005 24.0032L27.6759 23.4595L27.6527 23.5416L29.5774 24.0853ZM28.3565 26.364C28.9167 25.7116 29.3498 24.923 29.58 24.0757L27.65 23.5512C27.5023 24.0949 27.2172 24.6208 26.8392 25.0611L28.3565 26.364ZM28.3024 26.4263L28.3526 26.3686L26.8431 25.0565L26.7929 25.1143L28.3024 26.4263ZM27.8231 26.911C27.9871 26.767 28.1572 26.6027 28.3187 26.407L26.7765 25.1336C26.7036 25.2219 26.6161 25.3092 26.5035 25.4081L27.8231 26.911ZM27.782 26.9468L27.8202 26.9135L26.5064 25.4056L26.4683 25.4388L27.782 26.9468ZM27.1188 27.452C27.3528 27.2973 27.572 27.1303 27.7831 26.9459L26.4672 25.4398C26.3234 25.5654 26.1754 25.6781 26.0161 25.7834L27.1188 27.452ZM26.4088 28.2063C26.6036 27.8606 26.7759 27.6769 27.116 27.4538L26.019 25.7815C25.4175 26.1761 25.0215 26.5943 24.6664 27.2244L26.4088 28.2063ZM25.5388 29.5668C25.8713 29.121 26.1531 28.6602 26.4089 28.2061L24.6663 27.2246C24.4337 27.6376 24.1984 28.0186 23.9355 28.3712L25.5388 29.5668ZM25.5019 29.6161L25.5378 29.5682L23.9365 28.3699L23.9006 28.4178L25.5019 29.6161ZM24.9623 30.2915C25.1588 30.0663 25.3371 29.8375 25.5034 29.6141L23.8991 28.4198C23.7503 28.6197 23.6057 28.8042 23.4552 28.9768L24.9623 30.2915ZM24.8966 30.3663L24.96 30.2941L23.4575 28.9742L23.394 29.0463L24.8966 30.3663ZM24.5326 30.7586C24.6592 30.6317 24.7841 30.4984 24.9062 30.3552L23.3845 29.0574C23.3017 29.1544 23.2131 29.2494 23.1167 29.3461L24.5326 30.7586ZM24.4698 30.8211L24.5299 30.7613L23.1194 29.3434L23.0593 29.4032L24.4698 30.8211ZM23.6065 31.6162C23.9123 31.3594 24.1975 31.0924 24.4703 30.8205L23.0587 29.4037C22.8153 29.6462 22.5725 29.8729 22.3202 30.0847L23.6065 31.6162ZM23.5643 31.6515L23.6054 31.6171L22.3213 30.0838L22.2802 30.1182L23.5643 31.6515ZM22.9325 32.139C23.1632 31.9801 23.3725 31.8127 23.5655 31.6505L22.2791 30.1192C22.1109 30.2605 21.9553 30.3836 21.7974 30.4924L22.9325 32.139ZM22.8228 32.2096C22.8062 32.231 22.7974 32.2356 22.8137 32.2226C22.8216 32.2162 22.8336 32.2071 22.8522 32.1939C22.8714 32.1804 22.893 32.1657 22.9225 32.1459L21.8075 30.4856C21.7005 30.5574 21.4457 30.722 21.2428 30.9833L22.8228 32.2096ZM23.021 31.6561C23.0227 31.7208 23.0166 31.7702 23.0138 31.7897C23.0126 31.798 23.0118 31.8023 23.0125 31.7985C23.0132 31.7945 23.0142 31.789 23.0164 31.7768L21.0492 31.4161C21.0489 31.4179 21.0178 31.5592 21.0217 31.7085L23.021 31.6561ZM23.0111 31.5452C23.0092 31.5357 23.0084 31.5322 23.0079 31.5299C23.0075 31.5278 23.0085 31.5324 23.0099 31.5405C23.013 31.5586 23.0196 31.6008 23.021 31.6562L21.0217 31.7085C21.0251 31.8384 21.0543 31.9582 21.0545 31.9591L23.0111 31.5452ZM22.6399 30.9716C22.6862 30.9987 22.717 31.0236 22.7267 31.0316C22.7311 31.0353 22.7324 31.0365 22.7282 31.0328C22.7236 31.0287 22.7178 31.0235 22.7065 31.0131L21.3591 32.4911C21.3777 32.5081 21.4881 32.6148 21.6296 32.6977L22.6399 30.9716ZM22.6504 30.9202C22.5866 30.9124 22.5409 30.9069 22.5038 30.902C22.4859 30.8996 22.4725 30.8977 22.4623 30.8962C22.4521 30.8946 22.447 30.8937 22.4457 30.8935C22.4443 30.8932 22.4489 30.894 22.4576 30.8961C22.4665 30.8983 22.4812 30.9021 22.4999 30.9082C22.519 30.9145 22.5416 30.9228 22.5665 30.9339C22.5917 30.9452 22.6163 30.9578 22.6399 30.9716L21.6297 32.6977C21.8038 32.7996 21.968 32.839 22.0817 32.8601C22.1795 32.8782 22.3001 32.8923 22.4088 32.9056L22.6504 30.9202ZM22.7063 30.9263L22.6388 30.9189L22.4204 32.9069L22.4879 32.9143L22.7063 30.9263ZM22.9247 30.9499C22.8536 30.9426 22.7819 30.9348 22.7091 30.9266L22.485 32.914C22.563 32.9228 22.6419 32.9314 22.7217 32.9395L22.9247 30.9499ZM22.9982 30.9571L22.9214 30.9495L22.725 32.9399L22.8019 32.9474L22.9982 30.9571ZM26.396 30.5998C25.3015 30.9582 24.1581 31.0717 22.9984 30.9571L22.8017 32.9474C24.2221 33.0877 25.6455 32.95 27.0182 32.5006L26.396 30.5998ZM26.4571 30.5798L26.3949 30.6002L27.0193 32.5002L27.0816 32.4798L26.4571 30.5798ZM27.6975 30.0406C27.3007 30.2598 26.886 30.442 26.4637 30.5776L27.075 32.4819C27.63 32.3037 28.1633 32.0681 28.6645 31.7913L27.6975 30.0406ZM27.7515 30.0106L27.6955 30.0417L28.6665 31.7902L28.7225 31.7591L27.7515 30.0106ZM28.8501 29.3042C28.5177 29.562 28.1537 29.7893 27.7549 30.0088L28.7191 31.761C29.1764 31.5094 29.6356 31.226 30.0759 30.8845L28.8501 29.3042ZM28.9352 29.2384L28.8518 29.3028L30.0741 30.8859L30.1575 30.8215L28.9352 29.2384ZM29.266 28.9689C29.1713 29.0542 29.0656 29.1384 28.9375 29.2367L30.1552 30.8232C30.2935 30.7171 30.4498 30.5944 30.6047 30.4548L29.266 28.9689ZM29.2665 28.9683L29.2583 28.976L30.6125 30.4478L30.6207 30.4401L29.2665 28.9683ZM29.43 28.8214C29.3682 28.8747 29.3104 28.928 29.2664 28.9685L30.6209 30.44C30.6688 30.3959 30.7027 30.3648 30.7355 30.3365L29.43 28.8214ZM29.9058 28.3435C29.7325 28.535 29.5855 28.6888 29.434 28.818L30.7315 30.34C30.986 30.123 31.2042 29.8893 31.3884 29.6859L29.9058 28.3435ZM29.9631 28.2801L29.9049 28.3445L31.3893 29.6849L31.4475 29.6204L29.9631 28.2801ZM32.2667 22.4015C32.2631 24.3086 31.6302 26.2215 29.9285 28.3205L31.4821 29.58C33.4331 27.1735 34.2621 24.8276 34.2667 22.4053L32.2667 22.4015ZM32.2668 22.331L32.2667 22.4025L34.2667 22.4042L34.2668 22.3327L32.2668 22.331ZM32.2074 21.2091C32.2541 21.5649 32.2672 21.9294 32.2668 22.3307L34.2668 22.333C34.2673 21.8916 34.2534 21.4286 34.1903 20.9484L32.2074 21.2091ZM32.2005 21.1576L32.2076 21.2109L34.1901 20.9466L34.183 20.8932L32.2005 21.1576ZM31.9447 19.9412C32.0607 20.3465 32.146 20.7463 32.2004 21.1568L34.1831 20.8941C34.1148 20.3791 34.0084 19.8831 33.8674 19.3908L31.9447 19.9412ZM31.9319 19.8968L31.945 19.9425L33.8671 19.3895L33.8539 19.3438L31.9319 19.8968ZM31.8202 19.5498C31.8567 19.6403 31.8875 19.7424 31.9318 19.8965L33.854 19.3442C33.8119 19.1976 33.7555 19.0011 33.6749 18.8014L31.8202 19.5498ZM31.7367 19.3298C31.7666 19.4187 31.7981 19.497 31.8243 19.5598L33.6707 18.7914C33.6515 18.7451 33.6406 18.7168 33.6328 18.6936L31.7367 19.3298ZM30.3703 16.9386C30.9644 17.6198 31.4781 18.4853 31.7285 19.3041L33.6411 18.7193C33.2946 17.586 32.6226 16.4783 31.8777 15.6241L30.3703 16.9386ZM30.2983 16.855C30.3218 16.8826 30.3464 16.9113 30.372 16.9404L31.8761 15.6223C31.8593 15.6031 31.842 15.583 31.8239 15.5616L30.2983 16.855ZM29.9226 16.4335C30.0533 16.564 30.1689 16.6921 30.2766 16.8284L31.8457 15.5882C31.6829 15.3823 31.5138 15.196 31.3361 15.0185L29.9226 16.4335ZM29.795 16.3061C29.839 16.3504 29.8828 16.3939 29.9247 16.4355L31.3341 15.0165C31.2922 14.9749 31.2524 14.9353 31.2133 14.896L29.795 16.3061ZM29.33 15.8746C29.487 16.0064 29.6392 16.1493 29.7946 16.3057L31.2136 14.8963C31.0274 14.7088 30.8303 14.5228 30.616 14.3428L29.33 15.8746ZM29.2651 15.8206L29.3333 15.8773L30.6127 14.3401L30.5445 14.2834L29.2651 15.8206ZM27.5995 14.7376C28.1925 15.0206 28.7463 15.3854 29.2621 15.8181L30.5475 14.2858C29.9155 13.7557 29.2208 13.2953 28.4609 12.9326L27.5995 14.7376ZM27.5426 14.7107L27.6027 14.7391L28.4577 12.931L28.3976 12.9027L27.5426 14.7107ZM26.4734 14.2943C26.8518 14.4171 27.2044 14.5504 27.5419 14.7103L28.3984 12.903C27.9625 12.6964 27.5255 12.5331 27.0908 12.392L26.4734 14.2943ZM26.3949 14.2689L26.4744 14.2946L27.0898 12.3917L27.0103 12.366L26.3949 14.2689ZM24.1472 13.9311C24.9219 13.9333 25.6905 14.0374 26.3904 14.2675L27.0148 12.3674C26.0786 12.0598 25.0955 11.9337 24.1527 11.9311L24.1472 13.9311ZM24.0792 13.9311L24.1491 13.9311L24.1508 11.9311L24.0809 11.9311L24.0792 13.9311ZM22.989 14.0063C23.3508 13.9549 23.7108 13.9303 24.0779 13.9311L24.0821 11.9311C23.6213 11.9301 23.166 11.9611 22.7079 12.0261L22.989 14.0063ZM22.9136 14.0175L22.9955 14.0053L22.7014 12.0271L22.6196 12.0392L22.9136 14.0175ZM21.4456 14.3798C21.8778 14.2055 22.3797 14.093 22.9067 14.0185L22.6266 12.0382C22.0126 12.125 21.3362 12.2674 20.6976 12.5249L21.4456 14.3798ZM21.2169 14.4669C21.2991 14.438 21.3764 14.408 21.4498 14.378L20.6933 12.5267C20.643 12.5472 20.5976 12.5646 20.5538 12.5801L21.2169 14.4669ZM21.1277 14.4963L21.1949 14.4744L20.5757 12.5726L20.5085 12.5945L21.1277 14.4963ZM21.0081 14.5352L21.1277 14.4963L20.5085 12.5945L20.389 12.6334L21.0081 14.5352ZM19.7605 13.164C19.7384 13.2611 19.7228 13.3518 19.7107 13.4292L21.6865 13.7394C21.6952 13.6835 21.7027 13.6426 21.7106 13.608L19.7605 13.164ZM19.8987 12.4176C19.8555 12.6944 19.8178 12.9276 19.7637 13.1504L21.7074 13.6217C21.7838 13.3068 21.8328 12.9954 21.8748 12.7259L19.8987 12.4176ZM19.9105 12.3416L19.8985 12.4187L21.875 12.7248L21.8869 12.6477L19.9105 12.3416ZM19.8987 10.8856C19.977 11.3632 19.9846 11.88 19.9113 12.3362L21.8861 12.6532C21.9969 11.9624 21.9815 11.2281 21.8723 10.562L19.8987 10.8856ZM19.8909 10.8403L19.8999 10.8929L21.8711 10.5547L21.8621 10.5021L19.8909 10.8403ZM19.8643 10.7096C19.8726 10.7412 19.8806 10.78 19.8905 10.8382L21.8624 10.5043C21.8476 10.4167 21.8282 10.314 21.799 10.2027L19.8643 10.7096ZM19.8508 10.6658L19.8727 10.7398L21.7906 10.1725L21.7687 10.0985L19.8508 10.6658ZM19.1239 9.5049C19.4671 9.76722 19.7009 10.1429 19.8485 10.6576L21.7711 10.1066C21.5372 9.2908 21.1053 8.50205 20.3386 7.91597L19.1239 9.5049ZM19.0862 9.47768L19.1418 9.51824L20.3207 7.90262L20.2651 7.86206L19.0862 9.47768ZM18.39 9.15235C18.68 9.23965 18.9006 9.34091 19.0824 9.47489L20.2689 7.86484C19.8447 7.55224 19.3941 7.36597 18.9666 7.23725L18.39 9.15235ZM18.3467 9.13952L18.3945 9.15367L18.9621 7.23592L18.9143 7.22177L18.3467 9.13952ZM18.12 9.07999C18.1865 9.09398 18.2588 9.11316 18.3432 9.13847L18.9178 7.22282C18.8009 7.18774 18.6713 7.1522 18.5321 7.12289L18.12 9.07999ZM18.0204 9.06027C18.0565 9.06758 18.0987 9.07614 18.1396 9.08391L18.5125 7.11897C18.4861 7.11397 18.4567 7.10802 18.4179 7.10015L18.0204 9.06027ZM17.8586 8.9293C17.7785 8.98353 17.711 9.00007 17.6863 9.00476C17.6628 9.00919 17.6617 9.00615 17.693 9.00754C17.7227 9.00887 17.7652 9.01335 17.8242 9.02297C17.8839 9.0327 17.9449 9.04494 18.0204 9.06027L18.4179 7.10015C18.2852 7.07325 18.0371 7.02086 17.7818 7.00952C17.543 6.99891 17.122 7.01253 16.7367 7.27356L17.8586 8.9293ZM18.0816 8.69227C18.0883 8.65311 18.0914 8.63834 18.0929 8.63196C18.094 8.62731 18.0905 8.6441 18.0788 8.67212C18.0664 8.70215 18.0459 8.74229 18.0142 8.78515C17.982 8.8285 17.9466 8.8635 17.9128 8.88985L16.6825 7.31301C16.2122 7.67998 16.14 8.18176 16.1104 8.35384L18.0816 8.69227ZM18.0658 8.78538L18.0819 8.6903L16.1101 8.35581L16.094 8.45089L18.0658 8.78538ZM18.0562 8.84077L18.0653 8.7885L16.0945 8.44777L16.0855 8.50004L18.0562 8.84077ZM18.0033 9.13683C18.0211 9.03976 18.039 8.94062 18.0563 8.84029L16.0854 8.50052C16.0698 8.59105 16.0533 8.68248 16.0362 8.7759L18.0033 9.13683ZM17.9919 9.19907L18.0032 9.13742L16.0363 8.77532L16.0249 8.83697L17.9919 9.19907ZM17.956 9.39394L17.9919 9.19896L16.0249 8.83708L15.989 9.03206L17.956 9.39394ZM17.9171 9.60511L17.956 9.39404L15.989 9.03197L15.9502 9.24304L17.9171 9.60511ZM17.8901 9.7522L17.9172 9.60502L15.9502 9.24313L15.9231 9.39031L17.8901 9.7522ZM17.7947 10.2719L17.8902 9.75184L15.923 9.39068L15.8275 9.91076L17.7947 10.2719ZM17.7549 10.4897C17.7683 10.4166 17.7815 10.3439 17.7948 10.2713L15.8274 9.91133C15.814 9.98478 15.8006 10.0582 15.7873 10.1312L17.7549 10.4897ZM17.5897 11.3761C17.6477 11.0781 17.702 10.7804 17.7549 10.4897L15.7873 10.1312C15.734 10.4239 15.6819 10.7096 15.6266 10.9938L17.5897 11.3761ZM17.4338 12.2141C17.4849 11.9304 17.5356 11.6526 17.5895 11.3769L15.6267 10.9929C15.5698 11.2841 15.5169 11.5744 15.4655 11.8591L17.4338 12.2141ZM17.4201 12.29L17.4338 12.2141L15.4655 11.8591L15.4518 11.935L17.4201 12.29ZM17.4067 12.364C17.4111 12.3396 17.4156 12.315 17.42 12.2904L15.4519 11.9346C15.4475 11.9588 15.4431 11.983 15.4387 12.0075L17.4067 12.364ZM17.2911 13.0419C17.3236 12.823 17.3634 12.6027 17.4067 12.364L15.4387 12.0075C15.3964 12.2409 15.3507 12.4926 15.3128 12.7483L17.2911 13.0419ZM17.2855 13.0814L17.2918 13.0371L15.3121 12.7531L15.3057 12.7975L17.2855 13.0814ZM13.4264 14.5025C14.3827 14.1487 15.3452 13.9246 16.2798 13.9393L16.3113 11.9395C15.0452 11.9196 13.826 12.2221 12.7324 12.6268L13.4264 14.5025ZM13.3758 14.5214L13.4285 14.5017L12.7303 12.6276L12.6776 12.6472L13.3758 14.5214ZM12.1234 12.9605C12.0901 13.1204 12.0627 13.2771 12.0389 13.4289L14.0146 13.7397C14.035 13.61 14.0566 13.487 14.0814 13.368L12.1234 12.9605ZM11.9442 10.0724C12.3642 10.8575 12.3557 11.8508 12.1236 12.9593L14.0811 13.3692C14.3446 12.1109 14.4631 10.5411 13.7077 9.12904L11.9442 10.0724ZM10.7182 9.15235C11.2833 9.32248 11.7037 9.64025 11.952 10.0867L13.6999 9.11477C13.1574 8.13898 12.27 7.53087 11.2947 7.23725L10.7182 9.15235ZM14.4307 17.5293C14.4214 17.6454 14.4021 17.7688 14.3736 17.9182L16.338 18.2936C16.3727 18.1123 16.4067 17.9088 16.4243 17.6891L14.4307 17.5293ZM13.5174 19.7701C13.761 19.4935 14.1124 19.1824 14.491 18.9486C14.8851 18.7053 15.2082 18.6073 15.4184 18.6092L15.4365 16.6092C14.6898 16.6025 13.9857 16.9101 13.4403 17.2469C12.8795 17.5931 12.3791 18.0365 12.0164 18.4485L13.5174 19.7701ZM13.488 19.8036L13.5181 19.7694L12.0157 18.4492L11.9856 18.4835L13.488 19.8036ZM12.528 21.6842C12.6713 20.9884 12.9991 20.353 13.4838 19.8084L11.9898 18.4788C11.2852 19.2704 10.7874 20.221 10.5691 21.2808L12.528 21.6842ZM12.5163 21.7424L12.5289 21.6797L10.5682 21.2853L10.5556 21.348L12.5163 21.7424ZM12.4563 22.9378C12.4116 22.552 12.4337 22.1441 12.5155 21.7467L10.5565 21.3437C10.4358 21.9305 10.3983 22.5526 10.4696 23.1679L12.4563 22.9378ZM12.4611 22.9741L12.4547 22.9251L10.4711 23.1806L10.4774 23.2296L12.4611 22.9741ZM13.2856 24.9913C12.8357 24.4463 12.554 23.7337 12.4618 22.9804L10.4766 23.2232C10.608 24.2967 11.0155 25.383 11.7433 26.2646L13.2856 24.9913ZM13.3275 25.0416L13.2831 24.9883L11.7458 26.2677L11.7902 26.321L13.3275 25.0416ZM13.6133 25.3673C13.5353 25.2956 13.459 25.206 13.3403 25.0573L11.7775 26.3054C11.8967 26.4546 12.0572 26.6537 12.2605 26.8404L13.6133 25.3673ZM15.9135 26.417C15.1767 26.4521 14.3417 26.0196 13.6041 25.359L12.2697 26.8487C13.1531 27.64 14.4908 28.4871 16.0088 28.4147L15.9135 26.417ZM14.9701 27.5252C14.9638 27.4819 14.9621 27.4475 14.9615 27.4297C14.9612 27.4211 14.9612 27.4149 14.9612 27.4133C14.9612 27.412 14.9612 27.4115 14.9612 27.4158H16.9612C16.9612 27.4133 16.9613 27.3899 16.9605 27.365C16.9595 27.3362 16.9571 27.292 16.9494 27.2388L14.9701 27.5252ZM15.0185 27.7252C15.0303 27.7471 15.0372 27.7599 15.0423 27.7696C15.0478 27.78 15.046 27.7769 15.0415 27.7674C15.037 27.758 15.0232 27.7283 15.0087 27.6861C14.9925 27.6385 14.9786 27.5844 14.9701 27.5253L16.9494 27.2388C16.9272 27.0853 16.877 26.9703 16.848 26.9091C16.8252 26.8612 16.7956 26.807 16.7796 26.7772L15.0185 27.7252ZM14.963 27.6221C14.982 27.6576 15.0012 27.6932 15.0205 27.7289L16.7776 26.7735C16.7605 26.742 16.7434 26.7103 16.7263 26.6784L14.963 27.6221ZM14.9341 27.568L14.9622 27.6207L16.727 26.6798L16.6989 26.6271L14.9341 27.568ZM14.2961 26.1178C14.4693 26.6366 14.6946 27.1193 14.9343 27.5684L16.6988 26.6268C16.4929 26.2409 16.3201 25.8646 16.1933 25.4847L14.2961 26.1178ZM14.235 25.9348C14.2548 25.9929 14.2745 26.0522 14.2948 26.1139L16.1946 25.4887C16.1732 25.4235 16.1508 25.3562 16.1275 25.288L14.235 25.9348ZM13.9031 24.6972C13.985 25.1266 14.0979 25.5341 14.2351 25.9352L16.1274 25.2877C16.0162 24.9628 15.9295 24.6467 15.8676 24.3223L13.9031 24.6972ZM13.8886 24.6199L13.9024 24.6936L15.8683 24.3259L15.8545 24.2522L13.8886 24.6199ZM13.6953 22.9173C13.7107 23.5038 13.7859 24.075 13.8889 24.6213L15.8542 24.2508C15.765 23.7776 15.7064 23.3164 15.6946 22.865L13.6953 22.9173ZM13.6939 22.8581L13.6952 22.9143L15.6947 22.868L15.6934 22.8118L13.6939 22.8581ZM13.9589 20.1492C13.7904 21.0118 13.6691 21.9184 13.694 22.8613L15.6933 22.8086C15.6738 22.0674 15.7682 21.3188 15.9218 20.5325L13.9589 20.1492ZM14.0712 19.5457C14.0343 19.7506 13.9977 19.9508 13.9589 20.1489L15.9218 20.5327C15.9634 20.3197 16.0022 20.1078 16.0395 19.9003L14.0712 19.5457ZM14.2258 18.7025C14.1728 18.9845 14.1216 19.2659 14.0712 19.5458L16.0396 19.9002C16.0895 19.6226 16.1398 19.3468 16.1914 19.0721L14.2258 18.7025ZM14.2512 18.5679L14.2258 18.7025L16.1914 19.0721L16.2167 18.9375L14.2512 18.5679ZM14.2545 18.5502L14.2511 18.5681L16.2168 18.9372L16.2201 18.9192L14.2545 18.5502ZM14.3267 18.1669C14.3024 18.295 14.2783 18.4231 14.2545 18.5502L16.2201 18.9193C16.244 18.7919 16.2678 18.6656 16.2917 18.5394L14.3267 18.1669ZM14.3583 17.9996L14.3266 18.1676L16.2918 18.5387L16.3235 18.3707L14.3583 17.9996ZM14.373 17.9212L14.3581 18.0004L16.3237 18.3699L16.3386 18.2906L14.373 17.9212Z" fill="#FAFAFA" mask="url(#path-2-inside-1_7500_5091)"/>
</svg>
