<svg width="40" height="40" viewBox="0 0 40 40" fill="none" xmlns="http://www.w3.org/2000/svg">
<rect width="40" height="40" rx="6" fill="#FAFAFA"/>
<path d="M24.5602 19.9514C24.543 24.238 22.7143 28.6635 18.9363 30.6767C16.2795 32.0998 10 33.1931 10 28.5594C10 28.5594 10 11.326 10 11.3086C10 8.74012 12.1564 7.88973 14.3129 8.01121C17.5216 8.18476 20.5924 9.69464 22.4555 12.4714C23.6459 14.2416 24.3014 16.3762 24.5085 18.5283C24.5257 19.0142 24.5602 19.4828 24.5602 19.9514Z" fill="#7047EB"/>
<path d="M30.5122 18.4406C30.1499 14.9002 27.9935 11.9325 25.0089 10.145C23.0251 8.94748 20.5408 8.65245 19.247 11.0474C19.247 11.0648 10.535 27.1701 10.535 27.1701C9.77594 28.5759 9.94846 29.7386 10.6385 30.6931C11.6736 32.1163 13.7265 32.7584 15.3999 32.9319C16.9525 33.1055 18.5224 32.9319 20.0233 32.5849C24.5604 31.5435 28.58 28.437 29.9429 23.9247C30.4777 22.1545 30.7019 20.2976 30.5122 18.4406Z" fill="#FF9B53"/>
<path d="M18.9357 30.6931C22.7137 28.6626 24.5424 24.2371 24.5596 19.9678C24.5596 19.4992 24.5424 19.0306 24.4906 18.562C24.3008 16.41 23.628 14.2754 22.4377 12.5052C21.7821 11.516 20.9713 10.7003 20.057 10.0234C19.7637 10.2838 19.4877 10.6309 19.2634 11.0647C19.2634 11.0821 10.5515 27.1874 10.5515 27.1874C9.98216 28.2287 9.94765 29.1485 10.2409 29.9469C10.2409 29.9642 10.2582 29.9816 10.2582 29.9989C10.2754 30.0336 10.2927 30.0857 10.3099 30.1204C10.3272 30.1551 10.3272 30.1725 10.3444 30.2072C10.3444 30.2245 10.3617 30.2419 10.3617 30.2419C11.7246 32.8798 16.6585 31.9079 18.9357 30.6931Z" fill="#E23B7B"/>
</svg>
