<svg width="40" height="40" viewBox="0 0 40 40" fill="none" xmlns="http://www.w3.org/2000/svg">
<rect width="40" height="40" rx="6" fill="#FAFAFA"/>
<path d="M25.6524 29.4329L25.6523 29.4329C25.3971 29.0158 25.25 28.5255 25.25 28C25.25 26.4812 26.4812 25.25 28 25.25C28.5255 25.25 29.0158 25.3971 29.4329 25.6523L29.4329 25.6524C30.0027 26.0009 30.4356 26.5509 30.6326 27.2025L30.8719 27.1301L30.6326 27.2025C30.7089 27.4547 30.75 27.7223 30.75 28C30.75 29.5188 29.5188 30.75 28 30.75C27.7223 30.75 27.4547 30.7089 27.2025 30.6326L27.1301 30.8719L27.2025 30.6326C26.5509 30.4356 26.0009 30.0027 25.6524 29.4329ZM30.2485 23.2546C29.5668 22.931 28.8043 22.75 28 22.75C25.1005 22.75 22.75 25.1005 22.75 28C22.75 28.8043 22.931 29.5668 23.2546 30.2485C22.2283 30.5742 21.1349 30.75 20 30.75C14.0629 30.75 9.25 25.937 9.25 20C9.25 14.0629 14.0629 9.25 20 9.25C25.937 9.25 30.75 14.0629 30.75 20C30.75 21.1349 30.5742 22.2283 30.2485 23.2546ZM32.2869 24.9685C32.908 23.4339 33.25 21.7566 33.25 20C33.25 12.6822 27.3178 6.75 20 6.75C12.6822 6.75 6.75 12.6822 6.75 20C6.75 27.3178 12.6822 33.25 20 33.25C21.7566 33.25 23.4339 32.908 24.9685 32.2869C25.8249 32.8934 26.8712 33.25 28 33.25C30.8995 33.25 33.25 30.8995 33.25 28C33.25 26.8712 32.8934 25.8249 32.2869 24.9685Z" fill="#7E68EE" stroke="#7E68EE" stroke-width="0.5"/>
</svg>
