<svg width="40" height="40" viewBox="0 0 40 40" fill="none" xmlns="http://www.w3.org/2000/svg">
<rect width="40" height="40" rx="6" fill="#FAFAFA"/>
<path d="M32.107 32.9998C32.1109 33.0001 32.1147 33.0001 32.1186 32.9998L21.2963 24.7856C21.0669 24.6123 20.7872 24.5185 20.4997 24.5185C20.2122 24.5185 19.9325 24.6123 19.703 24.7856L8.88124 32.9998C8.88511 33.0001 8.88899 33.0001 8.89285 32.9998H32.107ZM18.1593 24.8347L8 16.9468V32.1159C8.00063 32.243 8.02913 32.3684 8.08348 32.4833L18.1593 24.8347ZM32.9998 16.9468L22.8405 24.8347L32.9164 32.4833C32.9707 32.3684 32.9992 32.243 32.9998 32.1159V16.9468ZM10.2321 17.5495V14.8473L8.38616 16.1133L8.38437 16.1147L10.2321 17.5495ZM32.6155 16.1147L30.7677 14.8473V17.5495L32.6155 16.1147ZM19.1629 24.0713C19.5479 23.7806 20.0172 23.6234 20.4997 23.6234C20.9822 23.6234 21.4515 23.7806 21.8365 24.0713L22.1044 24.2744L29.8749 18.2428V8.44643C29.8749 8.32803 29.8278 8.21448 29.7441 8.13076C29.6604 8.04703 29.5468 8 29.4284 8H11.5714C11.453 8 11.3395 8.04703 11.2557 8.13076C11.172 8.21448 11.125 8.32803 11.125 8.44643V18.2428L18.8955 24.2758L19.1629 24.0713ZM24.9642 12.4643V10.2321C24.9642 10.1137 25.0112 10.0002 25.0949 9.91646C25.1787 9.83274 25.2922 9.7857 25.4106 9.7857H26.5267C26.9411 9.7857 27.3385 9.95032 27.6315 10.2433C27.9245 10.5364 28.0892 10.9338 28.0892 11.3482C28.0892 11.7626 27.9245 12.16 27.6315 12.453C27.3385 12.7461 26.9411 12.9107 26.5267 12.9107H25.857V14.6964C25.857 14.8148 25.81 14.9283 25.7263 15.0121C25.6426 15.0958 25.529 15.1428 25.4106 15.1428C25.2922 15.1428 25.1787 15.0958 25.0949 15.0121C25.0112 14.9283 24.9642 14.8148 24.9642 14.6964V12.4643ZM21.3142 9.79285C21.4307 9.77205 21.5507 9.79837 21.6478 9.86601C21.7449 9.93365 21.8112 10.0371 21.8321 10.1536L22.5088 13.9455L23.1856 10.1536C23.1945 10.0946 23.2151 10.0379 23.2462 9.98703C23.2774 9.93613 23.3184 9.89198 23.3669 9.8572C23.4153 9.82242 23.4703 9.79772 23.5285 9.78454C23.5867 9.77137 23.6469 9.76999 23.7057 9.7805C23.7644 9.791 23.8204 9.81318 23.8705 9.84571C23.9205 9.87824 23.9635 9.92046 23.9969 9.96989C24.0303 10.0193 24.0535 10.0749 24.065 10.1335C24.0766 10.192 24.0763 10.2523 24.0642 10.3107L23.324 14.4598C23.2898 14.6511 23.1894 14.8242 23.0403 14.949C22.8913 15.0737 22.7032 15.142 22.5088 15.142C22.3145 15.142 22.1264 15.0737 21.9773 14.949C21.8283 14.8242 21.7279 14.6511 21.6937 14.4598L20.9535 10.3107C20.9327 10.1942 20.959 10.0742 21.0267 9.97711C21.0943 9.88 21.1977 9.81373 21.3142 9.79285ZM18.491 9.7857C18.851 9.78645 19.1998 9.91112 19.4788 10.1388C19.7577 10.3664 19.9498 10.6831 20.0227 11.0357C20.0464 11.1518 20.023 11.2725 19.9576 11.3714C19.8923 11.4702 19.7903 11.539 19.6743 11.5627C19.5582 11.5864 19.4374 11.563 19.3386 11.4976C19.2398 11.4323 19.1709 11.3304 19.1472 11.2143C19.1219 11.0901 19.0619 10.9757 18.9741 10.8843C18.8863 10.793 18.7745 10.7284 18.6514 10.698C18.5284 10.6677 18.3993 10.6729 18.2791 10.713C18.159 10.7531 18.0526 10.8265 17.9725 10.9246C17.8923 11.0228 17.8417 11.1416 17.8264 11.2674C17.8111 11.3932 17.8318 11.5207 17.8861 11.6352C17.9404 11.7496 18.0261 11.8464 18.1331 11.9141C18.2402 11.9818 18.3643 12.0178 18.491 12.0178C18.7866 12.018 19.0761 12.102 19.3259 12.2601C19.5757 12.4182 19.7755 12.6439 19.9021 12.911C20.0287 13.1781 20.077 13.4757 20.0413 13.7691C20.0056 14.0626 19.8873 14.3399 19.7003 14.5688C19.5133 14.7978 19.2652 14.9689 18.9847 15.0625C18.7043 15.1561 18.4031 15.1681 18.1161 15.0974C17.8291 15.0266 17.568 14.8758 17.3633 14.6626C17.1585 14.4494 17.0184 14.1825 16.9593 13.8928C16.9356 13.7767 16.959 13.656 17.0244 13.5572C17.0897 13.4583 17.1917 13.3895 17.3078 13.3658C17.4238 13.3421 17.5446 13.3655 17.6434 13.4309C17.7423 13.4962 17.8111 13.5982 17.8348 13.7142C17.8601 13.8384 17.9201 13.9528 18.0079 14.0442C18.0957 14.1356 18.2075 14.2002 18.3306 14.2305C18.4536 14.2608 18.5827 14.2556 18.7029 14.2155C18.823 14.1754 18.9294 14.102 19.0095 14.0039C19.0897 13.9058 19.1403 13.7869 19.1556 13.6611C19.1709 13.5354 19.1502 13.4078 19.0959 13.2933C19.0416 13.1789 18.9559 13.0822 18.8489 13.0144C18.7418 12.9467 18.6177 12.9107 18.491 12.9107C18.0766 12.9107 17.6792 12.7461 17.3862 12.453C17.0931 12.16 16.9285 11.7626 16.9285 11.3482C16.9285 10.9338 17.0931 10.5364 17.3862 10.2433C17.6792 9.95032 18.0766 9.7857 18.491 9.7857ZM12.9107 12.4643V10.2321C12.9107 10.1137 12.9577 10.0002 13.0414 9.91646C13.1252 9.83274 13.2387 9.7857 13.3571 9.7857H14.4732C14.7918 9.78428 15.1032 9.88074 15.3653 10.062C15.6273 10.2433 15.8274 10.5007 15.9384 10.7994C16.0494 11.0981 16.0661 11.4237 15.9861 11.7321C15.906 12.0406 15.7332 12.317 15.491 12.5241C15.6631 12.6898 15.8001 12.8885 15.8937 13.1083C15.9873 13.3282 16.0355 13.5646 16.0357 13.8035V14.6964C16.0357 14.8148 15.9886 14.9283 15.9049 15.0121C15.8212 15.0958 15.7076 15.1428 15.5892 15.1428C15.4708 15.1428 15.3573 15.0958 15.2736 15.0121C15.1898 14.9283 15.1428 14.8148 15.1428 14.6964V13.8035C15.1428 13.5667 15.0487 13.3396 14.8813 13.1722C14.7139 13.0048 14.4868 12.9107 14.25 12.9107H13.8035V14.6964C13.8035 14.8148 13.7565 14.9283 13.6728 15.0121C13.5891 15.0958 13.4755 15.1428 13.3571 15.1428C13.2387 15.1428 13.1252 15.0958 13.0414 15.0121C12.9577 14.9283 12.9107 14.8148 12.9107 14.6964V12.4643ZM12.9107 16.9285C12.9107 16.8101 12.9577 16.6966 13.0414 16.6128C13.1252 16.5291 13.2387 16.4821 13.3571 16.4821H27.6427C27.7611 16.4821 27.8747 16.5291 27.9584 16.6128C28.0421 16.6966 28.0892 16.8101 28.0892 16.9285C28.0892 17.0469 28.0421 17.1605 27.9584 17.2442C27.8747 17.3279 27.7611 17.3749 27.6427 17.3749H13.3571C13.2387 17.3749 13.1252 17.3279 13.0414 17.2442C12.9577 17.1605 12.9107 17.0469 12.9107 16.9285ZM15.5892 19.1606C15.5892 19.0422 15.6363 18.9287 15.72 18.845C15.8037 18.7612 15.9173 18.7142 16.0357 18.7142H24.9642C25.0826 18.7142 25.1961 18.7612 25.2798 18.845C25.3636 18.9287 25.4106 19.0422 25.4106 19.1606C25.4106 19.279 25.3636 19.3926 25.2798 19.4763C25.1961 19.56 25.0826 19.6071 24.9642 19.6071H16.0357C15.9173 19.6071 15.8037 19.56 15.72 19.4763C15.6363 19.3926 15.5892 19.279 15.5892 19.1606Z" fill="#8F42EC"/>
<path d="M27.1965 11.3483C27.1965 11.1708 27.1259 11.0004 27.0003 10.8748C26.8748 10.7493 26.7044 10.6787 26.5268 10.6787H25.8572V12.018H26.5268C26.7044 12.018 26.8748 11.9474 27.0003 11.8219C27.1259 11.6963 27.1965 11.5259 27.1965 11.3483ZM14.4733 12.018C14.6509 12.018 14.8213 11.9474 14.9469 11.8219C15.0724 11.6963 15.143 11.5259 15.143 11.3483C15.143 11.1708 15.0724 11.0004 14.9469 10.8748C14.8213 10.7493 14.6509 10.6787 14.4733 10.6787H13.8037V12.018H14.4733Z" fill="#8F42EC"/>
</svg>
