<svg width="40" height="40" viewBox="0 0 40 40" fill="none" xmlns="http://www.w3.org/2000/svg">
<rect width="40" height="40" rx="6" fill="#FAFAFA"/>
<path d="M30 19.5C30 17.5948 28.4506 16.0455 26.5455 16.0455V14.3182C26.5455 11.9371 24.6083 10 22.2273 10H18.7727C16.3917 10 14.4545 11.9371 14.4545 14.3182V16.0455C12.5494 16.0455 11 17.5948 11 19.5V23.8182C11 23.8329 11 23.8484 11.0009 23.8631C11.025 25.2708 12.1771 26.4091 13.5909 26.4091H19.6364V29H16.1818C15.7051 29 15.3182 29.386 15.3182 29.8636C15.3182 30.3412 15.7051 30.7273 16.1818 30.7273H24.8182C25.2949 30.7273 25.6818 30.3412 25.6818 29.8636C25.6818 29.386 25.2949 29 24.8182 29H21.3636V26.4091H27.4091C28.8229 26.4091 29.975 25.2708 29.9991 23.8631C29.9991 23.8484 30 23.8337 30 23.8182V19.5ZM28.2727 19.5V21.3758C28.0024 21.28 27.7122 21.2273 27.4091 21.2273H26.5455V17.7727C27.498 17.7727 28.2727 18.5474 28.2727 19.5ZM16.1818 14.3182C16.1818 12.8897 17.3443 11.7273 18.7727 11.7273H22.2273C23.6557 11.7273 24.8182 12.8897 24.8182 14.3182V21.2273H16.1818V14.3182ZM14.4545 17.7727V21.2273H13.5909C13.2878 21.2273 12.9976 21.28 12.7273 21.3758V19.5C12.7273 18.5474 13.502 17.7727 14.4545 17.7727ZM27.4091 24.6818H13.5909C13.115 24.6818 12.7273 24.2949 12.7273 23.8182C12.7273 23.3415 13.115 22.9545 13.5909 22.9545H27.4091C27.885 22.9545 28.2727 23.3415 28.2727 23.8182C28.2727 24.2949 27.885 24.6818 27.4091 24.6818Z" fill="#3161F1"/>
</svg>
