<svg width="27" height="22" viewBox="0 0 27 22" fill="none" xmlns="http://www.w3.org/2000/svg">
<path d="M25.6701 12.8333C26.159 13.8111 25.059 16.5 24.4479 16.5C24.0405 15.8889 22.6146 14.5444 22.6146 14.0556C22.6146 13.4444 21.105 13.6063 19.559 12.8333C18.3368 12.2222 16.2998 12.0185 15.2812 12.2222C15.485 12.0185 16.1368 11.4889 17.1146 11C18.3368 10.3889 20.7813 11.6111 20.7813 10.3889C20.7813 9.41111 21.1887 8.75926 21.3924 8.55556C22.6146 9.57408 25.1813 11.8556 25.6701 12.8333Z" fill="#F69920"/>
<path d="M24.3828 9.97854C23.7135 9.28112 22.9397 8.71435 22.125 8.20725C22.0505 8.15886 22.0243 8.11032 22.0058 8.0246C21.8807 7.46156 21.9312 6.89096 21.9292 6.32425C21.9218 5.15705 21.933 3.98992 21.9218 2.82661C21.9105 1.96516 21.2542 1.3089 20.3929 1.26424C20.3408 1.26052 20.2885 1.26052 20.2364 1.26052C17.3316 1.26052 14.4287 1.26052 11.5257 1.26424C11.2201 1.26424 10.9366 1.17464 10.6457 1.11126C9.60358 0.887561 8.59865 0.544491 7.58815 0.216308C7.32524 0.130596 7.05488 0.0708805 6.79014 0C6.72304 0 6.65399 0 6.58694 0C6.60372 0.0373845 6.61116 0.0819903 6.63727 0.115653C6.91324 0.462445 7.19287 0.809182 7.47256 1.15597C7.495 1.18586 7.51727 1.21558 7.55088 1.26035C7.48739 1.26035 7.44639 1.26035 7.40168 1.26035C5.87658 1.26035 4.34776 1.26035 2.81889 1.26035C1.9911 1.26035 1.34045 1.80101 1.20436 2.59525C1.1858 2.69968 1.18197 2.804 1.18197 2.91227C1.18197 4.236 1.18008 5.55973 1.18392 6.88724C1.18392 6.98417 1.15775 7.03639 1.07204 7.07733C0.948832 7.13693 0.831512 7.20787 0.715915 7.28602C0.865064 7.27875 1.01605 7.26758 1.18197 7.25614C1.18197 7.30086 1.18197 7.3383 1.18197 7.37179C1.18197 7.87151 1.18008 8.37117 1.18197 8.867C1.18392 8.94161 1.15964 8.99016 1.09804 9.03104C0.883673 9.18024 0.672976 9.32573 0.466056 9.47854C0.305742 9.59786 0.154759 9.72096 0 9.844C0 9.85894 0 9.87394 0 9.88877C0.352292 9.95954 0.704694 10.0341 1.05715 10.1012C1.15592 10.1198 1.18392 10.1646 1.18392 10.2653C1.18197 12.1409 1.18197 14.0128 1.18197 15.8884C1.18197 17.3836 1.18008 18.8827 1.18197 20.3815C1.18197 21.1833 1.70774 21.8246 2.48337 21.9702C2.58775 21.9923 2.69962 22 2.80767 22C8.63592 22 14.4641 22 20.296 22C21.2132 22 21.9069 21.336 21.9217 20.4226C21.9367 19.5091 21.9253 18.5992 21.9253 17.6895C21.9253 16.6043 21.9253 15.5191 21.9253 14.4303C21.9253 14.3856 21.9253 14.3447 21.9253 14.2925C22.3001 14.3671 22.6114 14.5274 22.8482 14.8109C23.2379 15.2694 23.622 15.7318 24.0079 16.198C24.2036 16.4367 24.3957 16.679 24.5934 16.9213C24.6511 16.9885 24.7182 17.0445 24.7873 17.1115C24.8077 17.0854 24.8207 17.078 24.8265 17.0631C25.1433 16.3806 25.4734 15.7131 25.7736 15.0197C25.9059 14.7139 26.0011 14.3707 26.0682 14.0391C26.154 13.6178 26.07 13.1889 25.9731 12.7749C25.7177 11.6862 25.1472 10.7727 24.3828 9.97854ZM25.2777 14.5463C25.1697 15.1019 25.0653 15.6537 24.8172 16.1795C24.7799 16.0975 24.7444 16.0155 24.7035 15.9373C24.42 15.3781 24.0545 14.8782 23.6743 14.3824C23.3237 13.9276 22.8727 13.6143 22.3841 13.3383C21.4127 12.79 20.3799 12.3801 19.3358 11.9959C19.3171 11.9885 19.2947 11.9847 19.2704 11.9923C19.9285 12.3503 20.5867 12.7084 21.2467 13.0663C21.2409 13.0773 21.2355 13.0923 21.23 13.1035C20.8589 13.003 20.4822 12.9134 20.115 12.7979C19.539 12.6262 19.714 12.7084 18.3921 12.3094C15.9965 11.6568 15.6143 12.0893 15.6143 12.0893C17.9204 12.3316 18.3754 12.809 19.5649 13.4244C19.5054 13.5807 19.4493 13.7338 19.3934 13.8867C19.3077 14.1177 19.2237 14.3489 19.1323 14.5799C19.0763 14.7255 19.0838 14.8597 19.1379 15.0052C19.6134 16.2469 20.1093 17.4884 20.5811 18.7303C20.6072 18.7974 20.6221 18.8756 20.6277 18.9466V21.0832C20.6241 21.1242 20.6241 21.1727 20.6054 21.2138C20.6054 21.2174 20.5996 21.2212 20.5978 21.225C20.389 21.471 20.1281 21.527 19.8055 21.527C15.9387 21.5158 12.072 21.5234 8.20697 21.5234C6.3593 21.5234 4.51169 21.5234 2.66591 21.5197C2.57269 21.5197 2.47576 21.5159 2.38627 21.5009C1.95371 21.4301 1.69835 21.1244 1.6703 20.6359C1.66102 20.4271 1.6703 20.2182 1.6703 20.0058C1.6703 19.9795 1.68147 19.9497 1.69452 19.9237C2.16996 18.9989 2.53914 18.0294 2.90454 17.0599C2.93243 16.9854 2.96054 16.9145 2.98292 16.8362C2.6548 17.4478 2.18868 17.9399 1.69274 18.4061C1.67786 18.4024 1.66475 18.3985 1.6518 18.395C1.6723 18.0892 1.67608 17.7797 1.71891 17.4739C1.88666 16.2696 2.0657 15.0652 2.24085 13.8607C2.24085 13.8533 2.23718 13.8458 2.22974 13.816C2.04703 14.4201 1.86806 15.0057 1.69091 15.5873C1.6853 15.5873 1.67786 15.5873 1.67041 15.5873C1.67041 15.5277 1.67041 15.4716 1.67041 15.4156C1.67041 14.2932 1.66858 13.1745 1.67041 12.0523C1.67041 11.985 1.68536 11.9104 1.71507 11.8508C1.9686 11.2918 2.22974 10.7359 2.48693 10.1803C2.55786 10.0312 2.50554 9.88972 2.34528 9.85222C2.0842 9.79634 1.82328 9.75162 1.56226 9.71068C1.39445 9.68074 1.22663 9.66585 1.02899 9.64336C1.09243 9.60242 1.13342 9.57642 1.17447 9.54659C2.48332 8.67764 3.6504 7.65231 4.67956 6.46268C4.73166 6.40307 4.83054 6.34336 4.77654 6.24265C4.72622 6.14955 4.61617 6.16438 4.53235 6.18299C4.20039 6.25392 3.87043 6.33219 3.54041 6.41802C3.38188 6.45535 3.22906 6.51117 3.06491 6.54472C4.21156 5.57156 5.3582 4.59823 6.51784 3.6139C5.52218 2.92399 4.5358 2.24157 3.54958 1.5592C3.55325 1.54804 3.55708 1.5406 3.56074 1.52937C5.47552 1.86867 7.39029 2.20429 9.33295 2.54359C8.73635 1.89855 8.16025 1.27579 7.56555 0.634425C7.61399 0.64559 7.64015 0.649367 7.66248 0.656755C9.62941 1.31307 11.5926 1.9731 13.5614 2.61808C15.4445 3.23334 17.2306 4.05369 18.8601 5.19094C19.5184 5.64966 20.1151 6.17916 20.5791 6.83902C20.8084 7.16715 20.9893 7.51777 21.0714 7.91673C21.0769 7.94661 21.0602 8.00616 21.0361 8.02116C20.8757 8.11059 20.7656 8.24486 20.68 8.4015C20.527 8.68858 20.4505 8.99449 20.4636 9.31884C20.4711 9.49782 20.404 9.59108 20.2213 9.59108C20.0721 9.59108 19.921 9.5762 19.7776 9.53876C19.5873 9.49037 19.4009 9.41944 19.2125 9.35617C19.1808 9.34872 19.1528 9.33761 19.1212 9.32628C19.535 9.59481 19.9565 9.83344 20.4561 9.87816C20.6723 9.89671 20.8924 9.88177 21.0676 9.72157C21.1255 9.66941 21.1477 9.61714 21.1161 9.53515C21.0265 9.29645 21.0898 9.0877 21.2689 8.90866C21.3324 8.84539 21.3845 8.83406 21.4703 8.88245C22.3129 9.38961 23.0923 9.97126 23.7822 10.6723C24.185 11.0788 24.541 11.5189 24.8393 12.0112C25.3188 12.7975 25.453 13.6438 25.2777 14.5463Z" fill="black"/>
<path d="M14.1292 8.43106C13.8236 8.38262 13.5178 8.32668 13.2138 8.26341C13.1392 8.24841 13.1038 8.25963 13.0609 8.32301C12.9527 8.47588 12.7923 8.52432 12.6134 8.49071C12.4494 8.46094 12.3077 8.36401 12.2927 8.19992C12.2797 8.03588 12.1846 8.0171 12.0691 7.98727C12.0317 7.98 11.9944 7.97239 11.9609 7.95744C11.905 7.93139 11.8677 7.95011 11.8267 7.99483C11.562 8.30429 11.4576 8.65842 11.547 9.06115C11.6775 9.65402 12.2443 10.0717 12.9042 10.0717C12.908 10.0791 12.9099 10.0902 12.9117 10.1016C13.1038 10.0533 13.3033 10.027 13.4823 9.95243C14.0602 9.72118 14.3754 9.15825 14.2728 8.5802C14.2578 8.4906 14.2281 8.44961 14.1292 8.43106Z" fill="black"/>
</svg>
