<svg width="27" height="21" viewBox="0 0 27 21" fill="none" xmlns="http://www.w3.org/2000/svg">
<path d="M15.6013 20.0347C14.0978 19.1188 13.6197 17.1559 14.5357 15.6524L20.3281 6.1374C21.2441 4.6339 23.2069 4.15588 24.7104 5.07186C26.2139 5.98785 26.6919 7.95067 25.7759 9.45417L19.9836 18.9692C19.0676 20.4727 17.1074 20.9507 15.6013 20.0347Z" fill="url(#paint0_linear_3554_961)"/>
<path d="M5.86689 20.0347C4.36339 19.1188 3.88537 17.1559 4.80135 15.6524L9.14094 8.52216C10.0569 7.01866 12.0198 6.54064 13.5232 7.45663C15.0267 8.37261 15.5048 10.3354 14.5888 11.8389L10.2492 18.9692C9.33588 20.4727 7.37306 20.9507 5.86689 20.0347Z" fill="#01B6FF"/>
<path opacity="0.5" d="M5.86689 20.0348C4.36339 19.1188 3.88537 17.156 4.80135 15.6525L9.1356 8.5329C10.0516 7.0294 12.0144 6.55138 13.5179 7.46737C15.0214 8.38335 15.4994 10.3462 14.5834 11.8497L10.2519 18.9693C9.33589 20.4728 7.37306 20.9508 5.86689 20.0348Z" fill="url(#paint1_linear_3554_961)"/>
<path d="M14.1716 6.4657C12.6681 5.55506 12.1901 3.60024 13.106 2.10476L13.1541 2.02464C14.0701 0.526484 16.0329 0.0511325 17.5364 0.964448C19.0399 1.87509 19.5179 3.82991 18.602 5.3254L18.5539 5.40551C17.6406 6.901 15.6777 7.37635 14.1716 6.4657Z" fill="#7527FF"/>
<path d="M9.1872 20.0345C10.6907 19.1185 11.1687 17.1557 10.2527 15.6522L5.91582 8.5246C4.99984 7.0211 3.03701 6.54308 1.53351 7.45907C0.0273428 8.37505 -0.450679 10.3379 0.465307 11.8414L4.80489 18.969C5.72088 20.4725 7.6837 20.9505 9.1872 20.0345Z" fill="url(#paint2_linear_3554_961)"/>
<defs>
<linearGradient id="paint0_linear_3554_961" x1="14.2461" y1="22.2487" x2="24.7125" y2="5.07902" gradientUnits="userSpaceOnUse">
<stop stop-color="#01B6FF"/>
<stop offset="1" stop-color="#7527FF"/>
</linearGradient>
<linearGradient id="paint1_linear_3554_961" x1="6.40599" y1="16.4434" x2="16.4844" y2="10.364" gradientUnits="userSpaceOnUse">
<stop offset="0.0912"/>
<stop offset="0.5365" stop-color="#626262" stop-opacity="0.5019"/>
<stop offset="1" stop-color="white" stop-opacity="0"/>
</linearGradient>
<linearGradient id="paint2_linear_3554_961" x1="11.724" y1="23.5372" x2="-0.506413" y2="4.72115" gradientUnits="userSpaceOnUse">
<stop stop-color="#01B6FF"/>
<stop offset="1" stop-color="#7527FF"/>
</linearGradient>
</defs>
</svg>
