<svg width="40" height="40" viewBox="0 0 40 40" fill="none" xmlns="http://www.w3.org/2000/svg">
<rect width="40" height="40" rx="6" fill="#FAFAFA"/>
<path d="M13.7891 13.6719H25.7422C26.1406 13.6719 26.4453 13.3672 26.4453 12.9688C26.4453 12.5703 26.1406 12.2656 25.7422 12.2656H13.7891C13.3906 12.2656 13.0859 12.5703 13.0859 12.9688C13.0859 13.3672 13.3906 13.6719 13.7891 13.6719ZM26.4453 16.4844C26.4453 16.0859 26.1406 15.7812 25.7422 15.7812H13.7891C13.3906 15.7812 13.0859 16.0859 13.0859 16.4844C13.0859 16.8828 13.3906 17.1875 13.7891 17.1875H25.7422C26.1406 17.1875 26.4453 16.8828 26.4453 16.4844ZM13.7891 19.2969C13.3906 19.2969 13.0859 19.6016 13.0859 20C13.0859 20.3984 13.3906 20.7031 13.7891 20.7031H19.2969C19.6953 20.7031 20 20.3984 20 20C20 19.6016 19.6953 19.2969 19.2969 19.2969H13.7891Z" fill="#FF4D97"/>
<path d="M21.1719 31.25C21.1719 30.8516 20.8672 30.5469 20.4688 30.5469H12.8516C11.9375 30.5469 11.2109 29.8203 11.2109 28.9062V10.1562C11.2109 9.24219 11.9375 8.51562 12.8516 8.51562H27.1484C28.0625 8.51562 28.7891 9.24219 28.7891 10.1562V28.9062C28.7891 29.8203 28.0625 30.5469 27.1484 30.5469H26.4453C26.0469 30.5469 25.7422 30.8516 25.7422 31.25C25.7422 31.6484 26.0469 31.9531 26.4453 31.9531H27.1484C28.8359 31.9531 30.1953 30.5938 30.1953 28.9062V10.1562C30.1953 8.46875 28.8359 7.10938 27.1484 7.10938H12.8516C11.1641 7.10938 9.80469 8.46875 9.80469 10.1562V28.9062C9.80469 30.5938 11.1641 31.9531 12.8516 31.9531H20.4688C20.8672 31.9531 21.1719 31.6484 21.1719 31.25Z" fill="#FF4D97"/>
<path d="M23.5156 32.3281L25.1094 33.0078V30.5703C25.9531 30.0078 26.5156 29.0469 26.5156 27.9219C26.5156 26.2109 25.1563 24.8047 23.4922 24.8047C21.8281 24.8047 20.4688 26.2109 20.4688 27.9219C20.4688 29.0234 21.0313 30.0078 21.875 30.5703V33.0078L23.5156 32.3281ZM21.8984 27.9219C21.8984 26.9844 22.625 26.2109 23.5156 26.2109C24.4063 26.2109 25.1328 26.9844 25.1328 27.9219C25.1328 28.8594 24.4063 29.6328 23.5156 29.6328C22.625 29.6328 21.8984 28.8594 21.8984 27.9219Z" fill="#FF4D97"/>
</svg>
