<svg width="40" height="40" viewBox="0 0 40 40" fill="none" xmlns="http://www.w3.org/2000/svg">
<rect width="40" height="40" rx="6" fill="#FAFAFA"/>
<path d="M21.418 20.2795L23.9944 23.2244L27.4589 25.4384L28.063 20.2976L27.4589 15.2715L23.928 17.2167L21.418 20.2795Z" fill="#00832D"/>
<path d="M6.46875 24.9608V29.3405C6.46875 30.3418 7.27975 31.1528 8.28104 31.1528H12.6608L13.5669 27.8424L12.6608 24.9608L9.65536 24.0547L6.46875 24.9608Z" fill="#0066DA"/>
<path d="M12.6607 9.40527L6.46875 15.5973L9.65536 16.5034L12.6607 15.5973L13.5518 12.755L12.6607 9.40527Z" fill="#E94235"/>
<path d="M12.6607 15.5967H6.46875V24.9602H12.6607V15.5967Z" fill="#2684FC"/>
<path d="M31.4174 12.0275L27.4605 15.2715V25.4385L31.4355 28.6976C32.0305 29.1627 32.9004 28.7384 32.9004 27.9817V12.7283C32.9004 11.9626 32.0109 11.5427 31.4174 12.0275ZM21.4196 20.2795V24.9612H12.6602V31.1532H25.6483C26.6495 31.1532 27.4605 30.3422 27.4605 29.341V25.4385L21.4196 20.2795Z" fill="#00AC47"/>
<path d="M25.6483 9.40533H12.6602V15.5973H21.4196V20.2791L27.4605 15.2741V11.2176C27.4605 10.2163 26.6495 9.40533 25.6483 9.40533Z" fill="#FFBA00"/>
</svg>
